<svg width="883" height="390" viewBox="0 0 883 390" fill="none" xmlns="http://www.w3.org/2000/svg">
<g clip-path="url(#clip0)">
<rect width="883" height="390" fill="white"/>
<g opacity="0.2">
<path opacity="0.2" d="M243.622 105.458C243.622 165.127 164.594 230.376 118.758 213.499C72.9225 196.621 24.9792 198.689 12.8617 153.892C0.744123 109.095 20.3343 68.5664 86.0937 68.5664C151.853 68.5664 243.622 45.7892 243.622 105.458Z" fill="#805E16" fill-opacity="0.38"/>
<path opacity="0.2" d="M243.622 105.458C243.622 165.127 164.594 230.376 118.758 213.499C72.9225 196.621 24.9792 198.689 12.8617 153.892C0.744123 109.095 20.3343 68.5664 86.0937 68.5664C151.853 68.5664 243.622 45.7892 243.622 105.458Z" fill="url(#paint0_linear)" fill-opacity="0.3"/>
</g>
<g opacity="0.2">
<path opacity="0.2" d="M846.647 269.838C841.906 328.865 726.211 299.014 694.47 261.879C662.729 224.743 620.911 250.253 632.228 205.247C643.546 160.24 680.439 134.463 737.809 166.615C795.177 198.768 851.389 210.811 846.647 269.838Z" fill="#805E16" fill-opacity="0.38"/>
<path opacity="0.2" d="M846.647 269.838C841.906 328.865 726.211 299.014 694.47 261.879C662.729 224.743 620.911 250.253 632.228 205.247C643.546 160.24 680.439 134.463 737.809 166.615C795.177 198.768 851.389 210.811 846.647 269.838Z" fill="url(#paint1_linear)" fill-opacity="0.3"/>
</g>
<g opacity="0.2">
<path opacity="0.2" d="M56.8998 203.698C56.8998 208.666 50.6027 218.013 46.8896 216.608C43.1766 215.203 39.1885 211.46 38.2068 207.731C37.2253 204.001 38.8122 200.625 44.1391 200.625C49.4659 200.625 56.8998 198.729 56.8998 203.698Z" fill="#805E16" fill-opacity="0.38"/>
<path opacity="0.2" d="M56.8998 203.698C56.8998 208.666 50.6027 218.013 46.8896 216.608C43.1766 215.203 39.1885 211.46 38.2068 207.731C37.2253 204.001 38.8122 200.625 44.1391 200.625C49.4659 200.625 56.8998 198.729 56.8998 203.698Z" fill="url(#paint2_linear)" fill-opacity="0.3"/>
</g>
<g opacity="0.2">
<path opacity="0.2" d="M32.5092 198.574C31.1637 204.804 24.0206 199.015 22.6023 196.866C21.184 194.718 21.3697 190.168 23.5232 189.074C25.6769 187.981 26.9763 188.008 29.7763 190.031C32.5763 192.054 33.8546 192.346 32.5092 198.574Z" fill="#805E16" fill-opacity="0.38"/>
<path opacity="0.2" d="M32.5092 198.574C31.1637 204.804 24.0206 199.015 22.6023 196.866C21.184 194.718 21.3697 190.168 23.5232 189.074C25.6769 187.981 26.9763 188.008 29.7763 190.031C32.5763 192.054 33.8546 192.346 32.5092 198.574Z" fill="url(#paint3_linear)" fill-opacity="0.3"/>
</g>
<path d="M47.4165 18.973C47.4165 8.49449 55.9082 0 66.3831 0H816.617C827.092 0 835.584 8.49448 835.584 18.973V371.027C835.584 381.505 827.092 390 816.617 390H66.3831C55.9082 390 47.4165 381.505 47.4165 371.027V18.973Z" fill="url(#paint4_linear)"/>
<path d="M974.672 -16.8649H-91.6718V305.676H974.672V-16.8649Z" fill="white"/>
<path d="M974.672 -16.8649H-91.6718V305.676H974.672V-16.8649Z" fill="url(#paint5_linear)"/>
<g opacity="0.4">
<path opacity="0.4" d="M194.408 62.6451C194.408 122.315 155.421 202.308 69.5442 170.685C-16.3323 139.063 -48.4702 159.733 -48.4702 100.064C-48.4702 40.3948 -28.88 25.7532 36.8795 25.7532C102.639 25.7532 194.408 2.97593 194.408 62.6451Z" fill="#C5A255" fill-opacity="0.38"/>
<path opacity="0.4" d="M194.408 62.6451C194.408 122.315 155.421 202.308 69.5442 170.685C-16.3323 139.063 -48.4702 159.733 -48.4702 100.064C-48.4702 40.3948 -28.88 25.7532 36.8795 25.7532C102.639 25.7532 194.408 2.97593 194.408 62.6451Z" fill="url(#paint6_linear)" fill-opacity="0.3"/>
</g>
<path d="M412.806 -138.081V207.491H469.843V-138.081H412.806Z" stroke="#A2724E" stroke-width="3.492"/>
<path d="M510.444 63.8514L367.316 70.6478C363.828 70.8134 361.139 73.3543 361.311 76.323L363.471 113.663C363.642 116.632 366.609 118.904 370.097 118.738L513.225 111.942C516.713 111.776 519.402 109.236 519.23 106.267L517.07 68.9269C516.899 65.9582 513.932 63.6858 510.444 63.8514Z" fill="#482307"/>
<path d="M481.799 128.374L402.844 125.36C399.874 125.246 397.375 127.562 397.262 130.533L395.878 166.797C395.765 169.767 398.08 172.267 401.05 172.381L480.005 175.395C482.975 175.509 485.474 173.192 485.588 170.222L486.971 133.958C487.084 130.987 484.769 128.487 481.799 128.374Z" fill="#E15549"/>
<path d="M423.132 139.008L429.034 139.233C429.255 139.242 429.443 139.329 429.597 139.496C429.751 139.662 429.825 139.856 429.817 140.078L429.074 159.535C429.065 159.757 428.978 159.944 428.811 160.099C428.644 160.253 428.451 160.326 428.23 160.318L422.328 160.093C422.107 160.085 421.919 159.997 421.765 159.829C421.61 159.663 421.538 159.469 421.546 159.249L421.794 152.742L416.916 152.555L416.668 159.062C416.659 159.283 416.572 159.471 416.405 159.625C416.239 159.78 416.045 159.853 415.823 159.844L409.922 159.619C409.702 159.61 409.513 159.533 409.358 159.387C409.203 159.219 409.131 159.016 409.14 158.774L409.883 139.317C409.891 139.095 409.979 138.908 410.145 138.754C410.312 138.599 410.505 138.526 410.727 138.534L416.629 138.759C416.849 138.767 417.037 138.856 417.191 139.022C417.346 139.189 417.419 139.383 417.41 139.603L417.169 145.93L422.047 146.115L422.288 139.79C422.296 139.57 422.385 139.382 422.551 139.227C422.718 139.072 422.912 138.999 423.132 139.008Z" fill="white"/>
<path d="M435.826 141.423C437.729 140.007 440.197 139.358 443.228 139.474C446.259 139.59 448.659 140.435 450.429 142.011C452.218 143.568 453.062 145.701 452.959 148.412L452.78 153.111C452.674 155.862 451.681 157.925 449.799 159.301C447.938 160.658 445.471 161.278 442.401 161.161C439.329 161.044 436.907 160.237 435.135 158.742C433.383 157.227 432.56 155.094 432.665 152.343L432.844 147.644C432.948 144.913 433.942 142.839 435.826 141.423ZM441.022 154.622C441.407 155.04 441.941 155.261 442.624 155.287C443.307 155.313 443.857 155.133 444.273 154.747C444.691 154.36 444.914 153.756 444.946 152.932L445.138 147.872C445.17 147.069 444.992 146.459 444.605 146.041C444.221 145.605 443.686 145.373 443.004 145.347C442.321 145.32 441.771 145.511 441.354 145.917C440.936 146.304 440.713 146.898 440.682 147.702L440.49 152.762C440.458 153.585 440.635 154.205 441.022 154.622Z" fill="white"/>
<path d="M456.339 140.276L473.985 140.949C474.205 140.958 474.393 141.045 474.547 141.212C474.702 141.378 474.775 141.572 474.766 141.794L474.581 146.643C474.573 146.864 474.485 147.051 474.319 147.206C474.152 147.361 473.958 147.434 473.737 147.425L468.739 147.235L468.212 161.03C468.204 161.251 468.116 161.439 467.95 161.593C467.784 161.748 467.59 161.821 467.368 161.812L461.346 161.582C461.125 161.574 460.938 161.486 460.784 161.32C460.629 161.152 460.556 160.958 460.565 160.738L461.09 146.943L456.092 146.752C455.871 146.743 455.684 146.656 455.529 146.488C455.375 146.322 455.301 146.128 455.31 145.908L455.495 141.058C455.504 140.837 455.591 140.649 455.758 140.495C455.924 140.34 456.118 140.267 456.339 140.276Z" fill="white"/>
<path d="M501.969 181.616L380.042 183.745C377.071 183.797 374.704 186.248 374.756 189.221L375.408 226.606C375.46 229.579 377.911 231.946 380.882 231.894L502.809 229.765C505.78 229.713 508.147 227.262 508.095 224.289L507.443 186.904C507.391 183.931 504.94 181.564 501.969 181.616Z" fill="#482307"/>
<path d="M387.77 197.577L405.425 197.268C405.646 197.265 405.838 197.342 406.002 197.5C406.165 197.657 406.249 197.847 406.253 198.068L406.337 202.92C406.341 203.142 406.264 203.333 406.106 203.498C405.948 203.661 405.759 203.745 405.538 203.749L400.536 203.836L400.778 217.639C400.781 217.86 400.704 218.052 400.546 218.217C400.389 218.38 400.199 218.463 399.978 218.468L393.953 218.573C393.732 218.576 393.539 218.499 393.375 218.341C393.212 218.184 393.129 217.994 393.125 217.773L392.883 203.969L387.883 204.057C387.661 204.061 387.469 203.984 387.306 203.826C387.143 203.668 387.059 203.478 387.055 203.258L386.97 198.405C386.967 198.184 387.044 197.992 387.201 197.828C387.359 197.665 387.549 197.58 387.77 197.577Z" fill="white"/>
<path d="M411.279 199.096C413.101 197.577 415.528 196.791 418.561 196.738C421.595 196.684 424.038 197.396 425.892 198.871C427.766 200.325 428.726 202.409 428.773 205.121L428.856 209.823C428.904 212.576 428.026 214.692 426.225 216.17C424.442 217.629 422.013 218.384 418.94 218.438C415.867 218.492 413.404 217.821 411.552 216.426C409.718 215.011 408.778 212.927 408.73 210.174L408.648 205.473C408.6 202.74 409.477 200.615 411.279 199.096ZM417.201 211.986C417.608 212.381 418.154 212.572 418.838 212.561C419.521 212.549 420.059 212.338 420.454 211.929C420.849 211.52 421.039 210.905 421.025 210.08L420.936 205.017C420.922 204.214 420.711 203.614 420.302 203.22C419.893 202.804 419.347 202.603 418.664 202.615C417.981 202.627 417.443 202.848 417.048 203.277C416.654 203.686 416.463 204.292 416.477 205.095L416.565 210.158C416.58 210.983 416.792 211.592 417.201 211.986Z" fill="white"/>
<path d="M438.536 196.691L445.074 196.577C445.797 196.564 446.255 196.888 446.447 197.548L453.502 216.659C453.523 216.719 453.534 216.819 453.536 216.959C453.539 217.08 453.471 217.212 453.333 217.354C453.214 217.478 453.064 217.54 452.884 217.543L447.31 217.641C446.707 217.652 446.311 217.407 446.123 216.908L445.364 214.931L438.887 215.045L438.199 217.047C438.026 217.552 437.639 217.81 437.037 217.82L431.462 217.917C431.282 217.921 431.12 217.864 430.978 217.746C430.855 217.606 430.792 217.477 430.79 217.357C430.787 217.216 430.796 217.115 430.814 217.055L437.198 197.709C437.367 197.043 437.813 196.703 438.536 196.691ZM440.321 209.14L443.725 209.081L441.91 203.505L440.321 209.14Z" fill="white"/>
<path d="M455.168 203.033C455.132 200.983 455.946 199.301 457.611 197.985C459.296 196.67 461.514 195.988 464.265 195.94C467.037 195.892 469.309 196.525 471.079 197.841C472.871 199.156 473.779 200.548 473.804 202.014C473.807 202.195 473.74 202.356 473.602 202.5C473.484 202.623 473.344 202.685 473.184 202.688L467.158 202.794C466.696 202.801 466.271 202.638 465.884 202.303C465.496 201.968 464.981 201.806 464.338 201.818C463.374 201.835 462.896 202.124 462.907 202.686C462.912 202.988 463.147 203.235 463.613 203.428C464.099 203.62 464.985 203.786 466.274 203.924C469.272 204.254 471.415 204.92 472.698 205.922C474 206.905 474.67 208.431 474.706 210.5C474.742 212.549 473.827 214.244 471.961 215.583C470.116 216.901 467.677 217.586 464.645 217.64C461.611 217.693 459.22 217.111 457.471 215.896C455.722 214.68 454.831 213.178 454.801 211.391C454.798 211.209 454.856 211.058 454.974 210.935C455.112 210.792 455.271 210.718 455.452 210.715L461.177 210.616C461.598 210.609 462.064 210.801 462.573 211.195C463.102 211.587 463.818 211.775 464.722 211.76C466.229 211.733 466.977 211.439 466.967 210.876C466.961 210.515 466.686 210.248 466.14 210.076C465.594 209.885 464.565 209.702 463.056 209.527C457.862 208.935 455.233 206.77 455.168 203.033Z" fill="white"/>
<path d="M477.067 196.018L494.722 195.71C494.943 195.705 495.135 195.783 495.299 195.94C495.462 196.098 495.545 196.288 495.55 196.51L495.634 201.361C495.638 201.583 495.561 201.775 495.403 201.938C495.245 202.102 495.056 202.186 494.835 202.19L489.833 202.276L490.074 216.08C490.079 216.301 490.002 216.493 489.844 216.657C489.686 216.821 489.496 216.904 489.275 216.909L483.25 217.013C483.028 217.017 482.837 216.94 482.673 216.782C482.509 216.624 482.426 216.435 482.421 216.214L482.181 202.41L477.179 202.498C476.959 202.502 476.766 202.425 476.603 202.267C476.44 202.109 476.355 201.919 476.352 201.699L476.267 196.846C476.264 196.624 476.341 196.433 476.499 196.269C476.657 196.106 476.845 196.022 477.067 196.018Z" fill="white"/>
<g filter="url(#filter0_dddd)">
<path d="M66.8982 115.616L80.0464 144.907C81.3362 147.782 85.414 147.783 86.7066 144.91C87.4602 143.236 89.3393 142.382 91.0958 142.915L93.6522 143.691C95.4696 144.242 97.4313 143.509 98.4428 141.902L100.045 139.354C100.856 138.065 102.534 137.636 103.864 138.379L104.251 138.595C105.869 139.499 107.884 138.446 108.065 136.6C108.211 135.123 109.57 134.075 111.035 134.311L114.253 134.827C116.03 135.113 117.763 134.108 118.397 132.423L119.519 129.442C120.06 128.009 121.955 127.708 122.911 128.906C123.877 130.116 125.795 129.795 126.315 128.337L126.733 127.167C127.145 126.014 128.288 125.289 129.506 125.409L131.473 125.602C133.062 125.758 134.603 125.003 135.453 123.652L136.949 121.273C137.833 119.867 139.519 119.185 141.133 119.581L142.954 120.027C144.206 120.335 145.448 119.489 145.621 118.21C145.778 117.053 146.822 116.227 147.985 116.341L150.25 116.565C151.675 116.705 153.073 116.111 153.962 114.991L154.053 114.877C155.017 113.663 155.237 112.017 154.626 110.592L136.642 68.6677L118.925 27.3644C118.231 25.7481 116.354 25.0084 114.745 25.718L73.7931 43.7819L44.2526 56.2196C42.0664 57.1402 41.0698 59.683 42.0479 61.8444L44.5198 67.3069L66.8982 115.616Z" fill="#FFE7BD"/>
<path d="M66.8982 115.616L80.0464 144.907C81.3362 147.782 85.414 147.783 86.7066 144.91C87.4602 143.236 89.3393 142.382 91.0958 142.915L93.6522 143.691C95.4696 144.242 97.4313 143.509 98.4428 141.902L100.045 139.354C100.856 138.065 102.534 137.636 103.864 138.379L104.251 138.595C105.869 139.499 107.884 138.446 108.065 136.6C108.211 135.123 109.57 134.075 111.035 134.311L114.253 134.827C116.03 135.113 117.763 134.108 118.397 132.423L119.519 129.442C120.06 128.009 121.955 127.708 122.911 128.906C123.877 130.116 125.795 129.795 126.315 128.337L126.733 127.167C127.145 126.014 128.288 125.289 129.506 125.409L131.473 125.602C133.062 125.758 134.603 125.003 135.453 123.652L136.949 121.273C137.833 119.867 139.519 119.185 141.133 119.581L142.954 120.027C144.206 120.335 145.448 119.489 145.621 118.21C145.778 117.053 146.822 116.227 147.985 116.341L150.25 116.565C151.675 116.705 153.073 116.111 153.962 114.991L154.053 114.877C155.017 113.663 155.237 112.017 154.626 110.592L136.642 68.6677L118.925 27.3644C118.231 25.7481 116.354 25.0084 114.745 25.718L73.7931 43.7819L44.2526 56.2196C42.0664 57.1402 41.0698 59.683 42.0479 61.8444L44.5198 67.3069L66.8982 115.616Z" fill="url(#paint7_linear)"/>
<path d="M66.8982 115.616L80.0464 144.907C81.3362 147.782 85.414 147.783 86.7066 144.91C87.4602 143.236 89.3393 142.382 91.0958 142.915L93.6522 143.691C95.4696 144.242 97.4313 143.509 98.4428 141.902L100.045 139.354C100.856 138.065 102.534 137.636 103.864 138.379L104.251 138.595C105.869 139.499 107.884 138.446 108.065 136.6C108.211 135.123 109.57 134.075 111.035 134.311L114.253 134.827C116.03 135.113 117.763 134.108 118.397 132.423L119.519 129.442C120.06 128.009 121.955 127.708 122.911 128.906C123.877 130.116 125.795 129.795 126.315 128.337L126.733 127.167C127.145 126.014 128.288 125.289 129.506 125.409L131.473 125.602C133.062 125.758 134.603 125.003 135.453 123.652L136.949 121.273C137.833 119.867 139.519 119.185 141.133 119.581L142.954 120.027C144.206 120.335 145.448 119.489 145.621 118.21C145.778 117.053 146.822 116.227 147.985 116.341L150.25 116.565C151.675 116.705 153.073 116.111 153.962 114.991L154.053 114.877C155.017 113.663 155.237 112.017 154.626 110.592L136.642 68.6677L118.925 27.3644C118.231 25.7481 116.354 25.0084 114.745 25.718L73.7931 43.7819L44.2526 56.2196C42.0664 57.1402 41.0698 59.683 42.0479 61.8444L44.5198 67.3069L66.8982 115.616Z" fill="url(#paint8_radial)"/>
<path d="M66.8982 115.616L80.0464 144.907C81.3362 147.782 85.414 147.783 86.7066 144.91C87.4602 143.236 89.3393 142.382 91.0958 142.915L93.6522 143.691C95.4696 144.242 97.4313 143.509 98.4428 141.902L100.045 139.354C100.856 138.065 102.534 137.636 103.864 138.379L104.251 138.595C105.869 139.499 107.884 138.446 108.065 136.6C108.211 135.123 109.57 134.075 111.035 134.311L114.253 134.827C116.03 135.113 117.763 134.108 118.397 132.423L119.519 129.442C120.06 128.009 121.955 127.708 122.911 128.906C123.877 130.116 125.795 129.795 126.315 128.337L126.733 127.167C127.145 126.014 128.288 125.289 129.506 125.409L131.473 125.602C133.062 125.758 134.603 125.003 135.453 123.652L136.949 121.273C137.833 119.867 139.519 119.185 141.133 119.581L142.954 120.027C144.206 120.335 145.448 119.489 145.621 118.21C145.778 117.053 146.822 116.227 147.985 116.341L150.25 116.565C151.675 116.705 153.073 116.111 153.962 114.991L154.053 114.877C155.017 113.663 155.237 112.017 154.626 110.592L136.642 68.6677L118.925 27.3644C118.231 25.7481 116.354 25.0084 114.745 25.718L73.7931 43.7819L44.2526 56.2196C42.0664 57.1402 41.0698 59.683 42.0479 61.8444L44.5198 67.3069L66.8982 115.616Z" fill="url(#paint9_radial)"/>
</g>
<g opacity="0.3">
<path opacity="0.3" d="M696.459 106.177C749.868 79.6085 857.833 71.7034 864.129 155.385C870.425 239.067 879.51 253.81 826.1 280.378C772.69 306.947 753.4 303.575 726.906 250.278C700.411 196.981 643.049 132.745 696.459 106.177Z" fill="#C5A255" fill-opacity="0.38"/>
<path opacity="0.3" d="M696.459 106.177C749.868 79.6085 857.833 71.7034 864.129 155.385C870.425 239.067 879.51 253.81 826.1 280.378C772.69 306.947 753.4 303.575 726.906 250.278C700.411 196.981 643.049 132.745 696.459 106.177Z" fill="url(#paint10_linear)" fill-opacity="0.3"/>
</g>
<g filter="url(#filter1_dd)">
<path d="M536.333 324.649H332.969C328.313 324.649 324.539 328.424 324.539 333.081V362.595C324.539 367.252 328.313 371.027 332.969 371.027H536.333C540.988 371.027 544.763 367.252 544.763 362.595V333.081C544.763 328.424 540.988 324.649 536.333 324.649Z" fill="white"/>
</g>
<path d="M404.686 353.108V341.226H402.233L398.594 350.292H398.529L394.891 341.226H392.429V353.108H394.347V344.676H394.405L397.837 353.108H399.287L402.719 344.676H402.777V353.108H404.686ZM408.934 353.248C410.053 353.248 411.148 352.663 411.651 351.717H411.692V353.108H413.668V347.097C413.668 345.343 412.26 344.198 410.095 344.198C407.872 344.198 406.481 345.367 406.391 346.998H408.292C408.423 346.274 409.041 345.804 410.012 345.804C411.025 345.804 411.642 346.331 411.642 347.245V347.871L409.338 348.002C407.214 348.134 406.02 349.065 406.02 350.613C406.02 352.186 407.246 353.248 408.934 353.248ZM409.552 351.7C408.663 351.7 408.069 351.247 408.069 350.531C408.069 349.838 408.637 349.395 409.626 349.328L411.642 349.205V349.872C411.642 350.926 410.712 351.7 409.552 351.7ZM417.455 348.019H417.429V341.226H415.38V353.108H417.429V350.078L418.121 349.378L420.879 353.108H423.25L419.612 348.134L423.101 344.379H420.739L417.455 348.019ZM425.135 343.062C425.76 343.062 426.254 342.559 426.254 341.95C426.254 341.332 425.76 340.838 425.135 340.838C424.509 340.838 424.007 341.332 424.007 341.95C424.007 342.559 424.509 343.062 425.135 343.062ZM424.114 353.108H426.163V344.379H424.114V353.108ZM427.884 353.108H429.934V348.052C429.934 346.801 430.683 345.952 431.861 345.952C433.029 345.952 433.606 346.644 433.606 347.879V353.108H435.655V347.467C435.655 345.449 434.56 344.214 432.634 344.214C431.292 344.214 430.362 344.84 429.892 345.878H429.851V344.379H427.884V353.108ZM441.146 356.402C443.69 356.402 445.361 355.052 445.361 352.968V344.379H443.352V345.878H443.32C442.817 344.874 441.813 344.231 440.57 344.231C438.339 344.231 436.94 345.952 436.94 348.711C436.94 351.428 438.372 353.117 440.529 353.117C441.78 353.117 442.809 352.49 443.262 351.551H443.311V353.026C443.311 354.138 442.545 354.887 441.212 354.887C440.241 354.887 439.492 354.434 439.269 353.767H437.236C437.441 355.298 438.989 356.402 441.146 356.402ZM441.154 351.486C439.862 351.486 439.039 350.449 439.039 348.719C439.039 347.006 439.862 345.919 441.154 345.919C442.463 345.919 443.311 347.023 443.311 348.719C443.311 350.423 442.463 351.486 441.154 351.486ZM450.975 342.337V344.379H449.724V345.961H450.975V350.786C450.975 352.482 451.716 353.149 453.601 353.149C454.037 353.149 454.441 353.117 454.663 353.067V351.503C454.531 351.527 454.268 351.544 454.079 351.544C453.354 351.544 453.025 351.214 453.025 350.497V345.961H454.671V344.379H453.025V342.337H450.975ZM459.767 353.281C462.327 353.281 463.99 351.577 463.99 348.743C463.99 345.919 462.311 344.198 459.767 344.198C457.223 344.198 455.544 345.928 455.544 348.743C455.544 351.577 457.206 353.281 459.767 353.281ZM459.767 351.659C458.467 351.659 457.627 350.605 457.627 348.743C457.627 346.891 458.474 345.829 459.767 345.829C461.067 345.829 461.907 346.891 461.907 348.743C461.907 350.605 461.067 351.659 459.767 351.659ZM467.875 353.248C468.995 353.248 470.09 352.663 470.592 351.717H470.633V353.108H472.608V347.097C472.608 345.343 471.202 344.198 469.036 344.198C466.813 344.198 465.422 345.367 465.332 346.998H467.233C467.365 346.274 467.983 345.804 468.954 345.804C469.967 345.804 470.584 346.331 470.584 347.245V347.871L468.279 348.002C466.154 348.134 464.962 349.065 464.962 350.613C464.962 352.186 466.188 353.248 467.875 353.248ZM468.493 351.7C467.603 351.7 467.011 351.247 467.011 350.531C467.011 349.838 467.579 349.395 468.567 349.328L470.584 349.205V349.872C470.584 350.926 469.654 351.7 468.493 351.7ZM474.107 346.883C474.107 348.175 474.947 348.999 476.618 349.369L478.067 349.691C478.98 349.896 479.293 350.193 479.293 350.72C479.293 351.371 478.676 351.782 477.68 351.782C476.643 351.782 476.058 351.354 475.901 350.506H473.884C474.05 352.194 475.4 353.281 477.68 353.281C479.82 353.281 481.335 352.169 481.335 350.523C481.335 349.254 480.635 348.555 478.824 348.151L477.375 347.829C476.462 347.624 476.099 347.278 476.099 346.775C476.099 346.133 476.7 345.705 477.606 345.705C478.552 345.705 479.137 346.207 479.219 346.998H481.129C481.079 345.343 479.729 344.198 477.606 344.198C475.499 344.198 474.107 345.285 474.107 346.883ZM483.212 342.337V344.379H481.96V345.961H483.212V350.786C483.212 352.482 483.953 353.149 485.838 353.149C486.274 353.149 486.677 353.117 486.9 353.067V351.503C486.768 351.527 486.505 351.544 486.315 351.544C485.591 351.544 485.261 351.214 485.261 350.497V345.961H486.908V344.379H485.261V342.337H483.212ZM489.739 353.199C490.398 353.199 490.916 352.68 490.916 352.013C490.916 351.354 490.398 350.827 489.739 350.827C489.072 350.827 488.554 351.354 488.554 352.013C488.554 352.68 489.072 353.199 489.739 353.199ZM494.284 353.199C494.943 353.199 495.461 352.68 495.461 352.013C495.461 351.354 494.943 350.827 494.284 350.827C493.617 350.827 493.099 351.354 493.099 352.013C493.099 352.68 493.617 353.199 494.284 353.199ZM498.828 353.199C499.486 353.199 500.005 352.68 500.005 352.013C500.005 351.354 499.486 350.827 498.828 350.827C498.161 350.827 497.642 351.354 497.642 352.013C497.642 352.68 498.161 353.199 498.828 353.199Z" fill="#363636"/>
<path d="M391.49 353.108V341.226H389.375V346.166H383.596V341.226H381.472V353.108H383.596V347.953H389.375V353.108H391.49ZM399.162 350.497C398.94 351.222 398.216 351.7 397.261 351.7C395.919 351.7 395.063 350.761 395.063 349.361V349.238H401.163V348.57C401.163 345.919 399.615 344.198 397.137 344.198C394.619 344.198 393.021 346.017 393.021 348.777C393.021 351.56 394.602 353.281 397.22 353.281C399.287 353.281 400.818 352.145 401.081 350.497H399.162ZM397.146 345.788C398.323 345.788 399.113 346.652 399.154 347.887H395.079C395.161 346.669 395.993 345.788 397.146 345.788ZM402.489 353.108H404.538V348.028C404.538 346.801 405.238 346.051 406.399 346.051C406.745 346.051 407.057 346.101 407.231 346.166V344.313C407.082 344.28 406.851 344.231 406.588 344.231C405.559 344.231 404.793 344.84 404.497 345.903H404.456V344.379H402.489V353.108ZM413.733 350.497C413.512 351.222 412.787 351.7 411.832 351.7C410.49 351.7 409.634 350.761 409.634 349.361V349.238H415.734V348.57C415.734 345.919 414.186 344.198 411.709 344.198C409.189 344.198 407.592 346.017 407.592 348.777C407.592 351.56 409.173 353.281 411.791 353.281C413.857 353.281 415.388 352.145 415.652 350.497H413.733ZM411.716 345.788C412.894 345.788 413.684 346.652 413.726 347.887H409.65C409.733 346.669 410.564 345.788 411.716 345.788ZM421.504 343.062C422.13 343.062 422.624 342.559 422.624 341.95C422.624 341.332 422.13 340.838 421.504 340.838C420.879 340.838 420.377 341.332 420.377 341.95C420.377 342.559 420.879 343.062 421.504 343.062ZM420.484 353.108H422.533V344.379H420.484V353.108ZM424.097 346.883C424.097 348.175 424.937 348.999 426.608 349.369L428.057 349.691C428.97 349.896 429.283 350.193 429.283 350.72C429.283 351.371 428.666 351.782 427.67 351.782C426.633 351.782 426.049 351.354 425.893 350.506H423.875C424.04 352.194 425.39 353.281 427.67 353.281C429.81 353.281 431.325 352.169 431.325 350.522C431.325 349.254 430.626 348.555 428.815 348.151L427.366 347.829C426.452 347.624 426.09 347.278 426.09 346.775C426.09 346.133 426.69 345.705 427.596 345.705C428.543 345.705 429.127 346.207 429.21 346.998H431.119C431.071 345.343 429.72 344.198 427.596 344.198C425.489 344.198 424.097 345.285 424.097 346.883ZM436.989 356.352C438.981 356.352 439.944 355.62 440.685 353.454L443.847 344.379H441.69L439.632 351.363H439.591L437.54 344.379H435.301L438.404 353.117C438.413 353.141 438.281 353.577 438.281 353.602C438.059 354.409 437.622 354.73 436.775 354.73C436.651 354.73 436.289 354.722 436.182 354.698V356.32C436.289 356.344 436.866 356.352 436.989 356.352ZM448.431 353.281C450.992 353.281 452.654 351.577 452.654 348.743C452.654 345.919 450.975 344.198 448.431 344.198C445.888 344.198 444.208 345.928 444.208 348.743C444.208 351.577 445.871 353.281 448.431 353.281ZM448.431 351.659C447.131 351.659 446.291 350.605 446.291 348.743C446.291 346.891 447.139 345.829 448.431 345.829C449.732 345.829 450.571 346.891 450.571 348.743C450.571 350.605 449.732 351.659 448.431 351.659ZM461.71 344.379H459.659V349.427C459.659 350.695 458.927 351.535 457.742 351.535C456.589 351.535 455.98 350.86 455.98 349.609V344.379H453.93V350.02C453.93 352.037 455.133 353.264 457.025 353.264C458.351 353.264 459.232 352.655 459.693 351.592H459.734V353.108H461.71V344.379ZM463.389 353.108H465.439V348.028C465.439 346.801 466.139 346.051 467.299 346.051C467.644 346.051 467.957 346.101 468.13 346.166V344.313C467.983 344.28 467.752 344.231 467.488 344.231C466.46 344.231 465.694 344.84 465.398 345.903H465.357V344.379H463.389V353.108ZM473.128 342.337V344.379H471.876V345.961H473.128V350.786C473.128 352.482 473.869 353.149 475.754 353.149C476.19 353.149 476.593 353.117 476.816 353.067V351.503C476.684 351.527 476.421 351.544 476.231 351.544C475.506 351.544 475.177 351.214 475.177 350.497V345.961H476.823V344.379H475.177V342.337H473.128ZM481.919 353.281C484.479 353.281 486.142 351.577 486.142 348.743C486.142 345.919 484.462 344.198 481.919 344.198C479.375 344.198 477.697 345.928 477.697 348.743C477.697 351.577 479.359 353.281 481.919 353.281ZM481.919 351.659C480.619 351.659 479.779 350.605 479.779 348.743C479.779 346.891 480.627 345.829 481.919 345.829C483.22 345.829 484.06 346.891 484.06 348.743C484.06 350.605 483.22 351.659 481.919 351.659ZM490.028 353.248C491.147 353.248 492.242 352.663 492.745 351.717H492.786V353.108H494.761V347.097C494.761 345.343 493.354 344.198 491.188 344.198C488.966 344.198 487.575 345.367 487.484 346.998H489.385C489.517 346.274 490.135 345.804 491.106 345.804C492.119 345.804 492.736 346.331 492.736 347.245V347.871L490.432 348.002C488.307 348.134 487.114 349.065 487.114 350.613C487.114 352.186 488.34 353.248 490.028 353.248ZM490.646 351.7C489.756 351.7 489.163 351.247 489.163 350.531C489.163 349.838 489.731 349.395 490.719 349.328L492.736 349.205V349.872C492.736 350.926 491.806 351.7 490.646 351.7ZM496.26 346.883C496.26 348.175 497.099 348.999 498.771 349.369L500.219 349.691C501.133 349.896 501.446 350.193 501.446 350.72C501.446 351.371 500.829 351.782 499.832 351.782C498.795 351.782 498.21 351.354 498.054 350.506H496.037C496.202 352.194 497.552 353.281 499.832 353.281C501.973 353.281 503.487 352.169 503.487 350.522C503.487 349.254 502.787 348.555 500.976 348.151L499.527 347.829C498.614 347.624 498.251 347.278 498.251 346.775C498.251 346.133 498.853 345.705 499.758 345.705C500.705 345.705 501.289 346.207 501.371 346.998H503.282C503.232 345.343 501.882 344.198 499.758 344.198C497.651 344.198 496.26 345.285 496.26 346.883ZM505.364 342.337V344.379H504.113V345.961H505.364V350.786C505.364 352.482 506.104 353.149 507.991 353.149C508.427 353.149 508.829 353.117 509.052 353.067V351.503C508.92 351.527 508.656 351.544 508.468 351.544C507.743 351.544 507.414 351.214 507.414 350.497V345.961H509.06V344.379H507.414V342.337H505.364ZM511.892 353.199C512.551 353.199 513.069 352.68 513.069 352.013C513.069 351.354 512.551 350.827 511.892 350.827C511.225 350.827 510.707 351.354 510.707 352.013C510.707 352.68 511.225 353.199 511.892 353.199Z" fill="#363636"/>
<path d="M351.936 347.838C351.936 344.927 349.577 342.568 346.667 342.568C343.757 342.568 341.399 344.927 341.399 347.838C341.399 350.749 343.757 353.108 346.667 353.108C349.577 353.108 351.936 350.749 351.936 347.838Z" stroke="#E0E0E0" stroke-width="2"/>
<path d="M346.667 342.568C347.359 342.568 348.044 342.704 348.683 342.969C349.322 343.234 349.903 343.622 350.393 344.111C350.882 344.601 351.27 345.182 351.534 345.821C351.8 346.46 351.936 347.145 351.936 347.838" stroke="#616161" stroke-width="2"/>
<path d="M346.667 358.378C352.487 358.378 357.204 353.659 357.204 347.838C357.204 342.016 352.487 337.297 346.667 337.297C340.848 337.297 336.13 342.016 336.13 347.838C336.13 353.659 340.848 358.378 346.667 358.378Z" fill="#79D050"/>
<path d="M342.362 346.422L340.872 347.913L345.342 352.385L346.832 350.894L342.362 346.422Z" fill="white"/>
<path d="M352.974 345.112L351.484 343.622L344.033 351.075L345.523 352.566L352.974 345.112Z" fill="white"/>
<path d="M806.08 329.919H688.066C684.574 329.919 681.743 332.75 681.743 336.243V358.378C681.743 361.871 684.574 364.703 688.066 364.703H806.08C809.572 364.703 812.402 361.871 812.402 358.378V336.243C812.402 332.75 809.572 329.919 806.08 329.919Z" fill="#EBE6DF"/>
<g filter="url(#filter2_d)">
<path d="M702.549 353.108V343.276H705.99V341.226H696.63V343.276H700.063V353.108H702.549ZM706.883 353.108H709.286V348.175C709.286 346.932 709.977 346.207 711.163 346.207C711.508 346.207 711.838 346.265 712.035 346.347V344.231C711.871 344.181 711.633 344.14 711.352 344.14C710.316 344.14 709.566 344.749 709.253 345.87H709.204V344.28H706.883V353.108ZM715.002 356.378C717.25 356.378 718.362 355.562 719.111 353.298L722.148 344.28H719.612L717.744 351.181H717.695L715.818 344.28H713.184L716.254 353.108C716.262 353.149 716.171 353.495 716.171 353.536C716.007 354.236 715.57 354.516 714.698 354.516C714.607 354.516 714.171 354.508 714.089 354.491V356.352C714.171 356.369 714.912 356.378 715.002 356.378ZM729.3 343.086C730 343.086 730.551 342.526 730.551 341.851C730.551 341.168 730 340.615 729.3 340.615C728.6 340.615 728.048 341.168 728.048 341.851C728.048 342.526 728.6 343.086 729.3 343.086ZM728.106 353.108H730.51V344.28H728.106V353.108ZM733.6 342.246V344.28H732.357V346.092H733.6V350.728C733.6 352.449 734.407 353.141 736.481 353.141C736.967 353.141 737.379 353.1 737.625 353.043V351.272C737.478 351.296 737.255 351.313 737.042 351.313C736.333 351.313 736.004 350.992 736.004 350.317V346.092H737.634V344.28H736.004V342.246H733.6ZM748.03 353.298C750.696 353.298 752.4 351.592 752.4 348.686C752.4 345.82 750.672 344.091 748.03 344.091C745.387 344.091 743.658 345.829 743.658 348.686C743.658 351.585 745.363 353.298 748.03 353.298ZM748.03 351.462C746.844 351.462 746.095 350.465 746.095 348.694C746.095 346.94 746.86 345.928 748.03 345.928C749.198 345.928 749.956 346.94 749.956 348.694C749.956 350.465 749.207 351.462 748.03 351.462ZM762.636 344.28H760.232V349.337C760.232 350.506 759.565 351.272 758.496 351.272C757.434 351.272 756.849 350.646 756.849 349.468V344.28H754.446V349.97C754.446 352.03 755.713 353.273 757.623 353.273C758.956 353.273 759.829 352.631 760.265 351.519H760.315V353.108H762.636V344.28ZM765.685 342.246V344.28H764.442V346.092H765.685V350.728C765.685 352.449 766.492 353.141 768.566 353.141C769.052 353.141 769.464 353.1 769.71 353.043V351.272C769.563 351.296 769.341 351.313 769.127 351.313C768.419 351.313 768.089 350.992 768.089 350.317V346.092H769.719V344.28H768.089V342.246H765.685Z" fill="#482307"/>
</g>
<path d="M796.368 348.341C796.368 347.903 796.014 347.55 795.578 347.55C795.142 347.55 794.787 347.903 794.787 348.341H796.368ZM789.239 342.823C789.675 342.823 790.029 342.468 790.029 342.032C790.029 341.596 789.675 341.242 789.239 341.242V342.823ZM782.108 344.94V351.357H783.689V344.94H782.108ZM785.806 355.056H792.671V353.475H785.806V355.056ZM796.368 351.357V348.341H794.787V351.357H796.368ZM785.806 342.823H789.239V341.242H785.806V342.823ZM792.671 355.056C794.713 355.056 796.368 353.4 796.368 351.357H794.787C794.787 352.527 793.84 353.475 792.671 353.475V355.056ZM782.108 351.357C782.108 353.4 783.764 355.056 785.806 355.056V353.475C784.636 353.475 783.689 352.527 783.689 351.357H782.108ZM783.689 344.94C783.689 343.771 784.636 342.823 785.806 342.823V341.242C783.764 341.242 782.108 342.897 782.108 344.94H783.689Z" fill="#A2724E"/>
<path d="M797.196 339.646H792.5M789.083 347.763L797.196 339.646L789.083 347.763ZM797.196 339.646V344.772V339.646Z" stroke="#A2724E" stroke-width="1.5" stroke-linecap="round"/>
<path d="M-91.6718 305.149H972.565" stroke="#482307" stroke-opacity="0.1"/>
<g filter="url(#filter3_dddd)">
<path d="M707.16 189.573L703.673 198.477C702.961 200.297 703.591 202.368 705.197 203.481L784.141 258.22C785.942 259.468 788.398 259.129 789.793 257.439L804.198 239.984C804.415 239.722 804.598 239.435 804.746 239.128L816.04 215.646C816.228 215.254 816.477 214.893 816.775 214.577L832.285 198.166C832.489 197.95 832.67 197.714 832.824 197.46L844.026 179.03C845.21 177.081 844.632 174.544 842.719 173.302L824.204 161.281L806.501 146.738C806.297 146.57 806.079 146.423 805.847 146.296L787.77 136.419L766.235 120.374C763.855 118.601 760.437 119.778 759.653 122.641L757.131 131.849C756.761 133.202 755.742 134.282 754.413 134.73L751.7 135.645C749.824 136.278 748.642 138.13 748.857 140.099L748.962 141.069C749.226 143.479 747.408 145.614 744.988 145.738L744.566 145.759C742.409 145.869 740.684 147.593 740.572 149.751L740.329 154.39C740.243 156.05 739.19 157.503 737.641 158.103L731.313 160.554C729.964 161.075 728.977 162.253 728.697 163.672L727.861 167.933C727.585 169.336 726.617 170.504 725.29 171.035L719.642 173.293C718.314 173.824 717.346 174.992 717.071 176.395L715.834 182.692C715.551 184.128 714.544 185.316 713.173 185.829L709.609 187.161C708.487 187.581 707.596 188.457 707.16 189.573Z" fill="#FFE7BD"/>
<path d="M707.16 189.573L703.673 198.477C702.961 200.297 703.591 202.368 705.197 203.481L784.141 258.22C785.942 259.468 788.398 259.129 789.793 257.439L804.198 239.984C804.415 239.722 804.598 239.435 804.746 239.128L816.04 215.646C816.228 215.254 816.477 214.893 816.775 214.577L832.285 198.166C832.489 197.95 832.67 197.714 832.824 197.46L844.026 179.03C845.21 177.081 844.632 174.544 842.719 173.302L824.204 161.281L806.501 146.738C806.297 146.57 806.079 146.423 805.847 146.296L787.77 136.419L766.235 120.374C763.855 118.601 760.437 119.778 759.653 122.641L757.131 131.849C756.761 133.202 755.742 134.282 754.413 134.73L751.7 135.645C749.824 136.278 748.642 138.13 748.857 140.099L748.962 141.069C749.226 143.479 747.408 145.614 744.988 145.738L744.566 145.759C742.409 145.869 740.684 147.593 740.572 149.751L740.329 154.39C740.243 156.05 739.19 157.503 737.641 158.103L731.313 160.554C729.964 161.075 728.977 162.253 728.697 163.672L727.861 167.933C727.585 169.336 726.617 170.504 725.29 171.035L719.642 173.293C718.314 173.824 717.346 174.992 717.071 176.395L715.834 182.692C715.551 184.128 714.544 185.316 713.173 185.829L709.609 187.161C708.487 187.581 707.596 188.457 707.16 189.573Z" fill="url(#paint11_linear)"/>
<path d="M707.16 189.573L703.673 198.477C702.961 200.297 703.591 202.368 705.197 203.481L784.141 258.22C785.942 259.468 788.398 259.129 789.793 257.439L804.198 239.984C804.415 239.722 804.598 239.435 804.746 239.128L816.04 215.646C816.228 215.254 816.477 214.893 816.775 214.577L832.285 198.166C832.489 197.95 832.67 197.714 832.824 197.46L844.026 179.03C845.21 177.081 844.632 174.544 842.719 173.302L824.204 161.281L806.501 146.738C806.297 146.57 806.079 146.423 805.847 146.296L787.77 136.419L766.235 120.374C763.855 118.601 760.437 119.778 759.653 122.641L757.131 131.849C756.761 133.202 755.742 134.282 754.413 134.73L751.7 135.645C749.824 136.278 748.642 138.13 748.857 140.099L748.962 141.069C749.226 143.479 747.408 145.614 744.988 145.738L744.566 145.759C742.409 145.869 740.684 147.593 740.572 149.751L740.329 154.39C740.243 156.05 739.19 157.503 737.641 158.103L731.313 160.554C729.964 161.075 728.977 162.253 728.697 163.672L727.861 167.933C727.585 169.336 726.617 170.504 725.29 171.035L719.642 173.293C718.314 173.824 717.346 174.992 717.071 176.395L715.834 182.692C715.551 184.128 714.544 185.316 713.173 185.829L709.609 187.161C708.487 187.581 707.596 188.457 707.16 189.573Z" fill="url(#paint12_radial)"/>
<path d="M707.16 189.573L703.673 198.477C702.961 200.297 703.591 202.368 705.197 203.481L784.141 258.22C785.942 259.468 788.398 259.129 789.793 257.439L804.198 239.984C804.415 239.722 804.598 239.435 804.746 239.128L816.04 215.646C816.228 215.254 816.477 214.893 816.775 214.577L832.285 198.166C832.489 197.95 832.67 197.714 832.824 197.46L844.026 179.03C845.21 177.081 844.632 174.544 842.719 173.302L824.204 161.281L806.501 146.738C806.297 146.57 806.079 146.423 805.847 146.296L787.77 136.419L766.235 120.374C763.855 118.601 760.437 119.778 759.653 122.641L757.131 131.849C756.761 133.202 755.742 134.282 754.413 134.73L751.7 135.645C749.824 136.278 748.642 138.13 748.857 140.099L748.962 141.069C749.226 143.479 747.408 145.614 744.988 145.738L744.566 145.759C742.409 145.869 740.684 147.593 740.572 149.751L740.329 154.39C740.243 156.05 739.19 157.503 737.641 158.103L731.313 160.554C729.964 161.075 728.977 162.253 728.697 163.672L727.861 167.933C727.585 169.336 726.617 170.504 725.29 171.035L719.642 173.293C718.314 173.824 717.346 174.992 717.071 176.395L715.834 182.692C715.551 184.128 714.544 185.316 713.173 185.829L709.609 187.161C708.487 187.581 707.596 188.457 707.16 189.573Z" fill="url(#paint13_radial)"/>
</g>
<path d="M66.3831 0.527039H816.617C826.801 0.527039 835.057 8.78557 835.057 18.973V371.027C835.057 381.214 826.801 389.473 816.617 389.473H66.3831C56.1991 389.473 47.9434 381.214 47.9434 371.027V18.973C47.9434 8.78557 56.1991 0.527039 66.3831 0.527039Z" stroke="#482307" stroke-opacity="0.1"/>
<g filter="url(#filter4_iiiii)">
<path d="M66.8982 115.616L80.0465 144.907C81.3363 147.782 85.4139 147.783 86.7067 144.91C87.4602 143.236 89.3393 142.382 91.0959 142.915L93.6522 143.691C95.4697 144.242 97.4313 143.509 98.4428 141.902L100.045 139.354C100.856 138.065 102.534 137.636 103.864 138.379L104.251 138.595C105.869 139.499 107.884 138.446 108.065 136.6C108.211 135.123 109.57 134.075 111.035 134.311L114.253 134.827C116.03 135.113 117.762 134.108 118.397 132.423L119.519 129.442C120.06 128.009 121.955 127.708 122.911 128.906C123.877 130.116 125.795 129.795 126.315 128.337L126.733 127.167C127.145 126.014 128.288 125.289 129.506 125.409L131.473 125.602C133.062 125.758 134.603 125.003 135.453 123.652L136.949 121.273C137.833 119.867 139.519 119.185 141.132 119.581L142.954 120.027C144.206 120.335 145.448 119.489 145.621 118.211C145.778 117.053 146.822 116.227 147.985 116.341L150.25 116.565C151.675 116.705 153.073 116.111 153.963 114.991L154.053 114.877C155.017 113.663 155.237 112.017 154.626 110.592L136.642 68.6677L118.925 27.3644C118.231 25.7482 116.354 25.0084 114.745 25.718L73.7932 43.7819L44.2526 56.2196C42.0665 57.1402 41.0698 59.683 42.048 61.8444L44.5199 67.3069L66.8982 115.616Z" fill="#FFE7BD"/>
<path d="M66.8982 115.616L80.0465 144.907C81.3363 147.782 85.4139 147.783 86.7067 144.91C87.4602 143.236 89.3393 142.382 91.0959 142.915L93.6522 143.691C95.4697 144.242 97.4313 143.509 98.4428 141.902L100.045 139.354C100.856 138.065 102.534 137.636 103.864 138.379L104.251 138.595C105.869 139.499 107.884 138.446 108.065 136.6C108.211 135.123 109.57 134.075 111.035 134.311L114.253 134.827C116.03 135.113 117.762 134.108 118.397 132.423L119.519 129.442C120.06 128.009 121.955 127.708 122.911 128.906C123.877 130.116 125.795 129.795 126.315 128.337L126.733 127.167C127.145 126.014 128.288 125.289 129.506 125.409L131.473 125.602C133.062 125.758 134.603 125.003 135.453 123.652L136.949 121.273C137.833 119.867 139.519 119.185 141.132 119.581L142.954 120.027C144.206 120.335 145.448 119.489 145.621 118.211C145.778 117.053 146.822 116.227 147.985 116.341L150.25 116.565C151.675 116.705 153.073 116.111 153.963 114.991L154.053 114.877C155.017 113.663 155.237 112.017 154.626 110.592L136.642 68.6677L118.925 27.3644C118.231 25.7482 116.354 25.0084 114.745 25.718L73.7932 43.7819L44.2526 56.2196C42.0665 57.1402 41.0698 59.683 42.048 61.8444L44.5199 67.3069L66.8982 115.616Z" fill="url(#paint14_linear)"/>
<path d="M66.8982 115.616L80.0465 144.907C81.3363 147.782 85.4139 147.783 86.7067 144.91C87.4602 143.236 89.3393 142.382 91.0959 142.915L93.6522 143.691C95.4697 144.242 97.4313 143.509 98.4428 141.902L100.045 139.354C100.856 138.065 102.534 137.636 103.864 138.379L104.251 138.595C105.869 139.499 107.884 138.446 108.065 136.6C108.211 135.123 109.57 134.075 111.035 134.311L114.253 134.827C116.03 135.113 117.762 134.108 118.397 132.423L119.519 129.442C120.06 128.009 121.955 127.708 122.911 128.906C123.877 130.116 125.795 129.795 126.315 128.337L126.733 127.167C127.145 126.014 128.288 125.289 129.506 125.409L131.473 125.602C133.062 125.758 134.603 125.003 135.453 123.652L136.949 121.273C137.833 119.867 139.519 119.185 141.132 119.581L142.954 120.027C144.206 120.335 145.448 119.489 145.621 118.211C145.778 117.053 146.822 116.227 147.985 116.341L150.25 116.565C151.675 116.705 153.073 116.111 153.963 114.991L154.053 114.877C155.017 113.663 155.237 112.017 154.626 110.592L136.642 68.6677L118.925 27.3644C118.231 25.7482 116.354 25.0084 114.745 25.718L73.7932 43.7819L44.2526 56.2196C42.0665 57.1402 41.0698 59.683 42.048 61.8444L44.5199 67.3069L66.8982 115.616Z" fill="url(#paint15_radial)"/>
<path d="M66.8982 115.616L80.0465 144.907C81.3363 147.782 85.4139 147.783 86.7067 144.91C87.4602 143.236 89.3393 142.382 91.0959 142.915L93.6522 143.691C95.4697 144.242 97.4313 143.509 98.4428 141.902L100.045 139.354C100.856 138.065 102.534 137.636 103.864 138.379L104.251 138.595C105.869 139.499 107.884 138.446 108.065 136.6C108.211 135.123 109.57 134.075 111.035 134.311L114.253 134.827C116.03 135.113 117.762 134.108 118.397 132.423L119.519 129.442C120.06 128.009 121.955 127.708 122.911 128.906C123.877 130.116 125.795 129.795 126.315 128.337L126.733 127.167C127.145 126.014 128.288 125.289 129.506 125.409L131.473 125.602C133.062 125.758 134.603 125.003 135.453 123.652L136.949 121.273C137.833 119.867 139.519 119.185 141.132 119.581L142.954 120.027C144.206 120.335 145.448 119.489 145.621 118.211C145.778 117.053 146.822 116.227 147.985 116.341L150.25 116.565C151.675 116.705 153.073 116.111 153.963 114.991L154.053 114.877C155.017 113.663 155.237 112.017 154.626 110.592L136.642 68.6677L118.925 27.3644C118.231 25.7482 116.354 25.0084 114.745 25.718L73.7932 43.7819L44.2526 56.2196C42.0665 57.1402 41.0698 59.683 42.048 61.8444L44.5199 67.3069L66.8982 115.616Z" fill="url(#paint16_radial)"/>
</g>
<g filter="url(#filter5_ii)">
<path d="M85.6266 147.947L85.7045 137.357L100.998 129.102L119.114 123.389L135.342 114.532L152.515 107.248C154.319 110.006 154.785 113.43 153.786 116.571L153.52 117.41C153.46 117.598 153.382 117.778 153.286 117.949L152.231 119.83C151.14 121.777 149.162 123.065 146.941 123.276L146.183 123.348C144.549 123.504 143.08 124.413 142.212 125.807L141.789 126.484C140.79 128.09 138.844 128.833 137.029 128.302L136.028 128.009C134.511 127.564 132.905 128.347 132.319 129.815C131.83 131.042 130.611 131.818 129.294 131.741L127.969 131.664C126.265 131.566 124.652 132.439 123.801 133.919C122.87 135.541 121.015 136.416 119.168 136.122C117.819 135.908 116.434 136.308 115.414 137.217L115.243 137.369C114.246 138.256 112.938 138.712 111.605 138.634L109.767 138.528C108.266 138.442 106.815 139.086 105.872 140.257C105.021 141.313 103.752 141.946 102.397 141.991L100.828 142.042C99.5043 142.085 98.2849 142.774 97.5622 143.884C96.8336 145.004 95.6007 145.692 94.2656 145.727L92.0005 145.784C90.7214 145.817 89.4668 146.141 88.3332 146.736L85.8085 148.058C85.7253 148.101 85.626 148.041 85.6266 147.947Z" fill="#CFB895"/>
<path d="M85.6266 147.947L85.7045 137.357L100.998 129.102L119.114 123.389L135.342 114.532L152.515 107.248C154.319 110.006 154.785 113.43 153.786 116.571L153.52 117.41C153.46 117.598 153.382 117.778 153.286 117.949L152.231 119.83C151.14 121.777 149.162 123.065 146.941 123.276L146.183 123.348C144.549 123.504 143.08 124.413 142.212 125.807L141.789 126.484C140.79 128.09 138.844 128.833 137.029 128.302L136.028 128.009C134.511 127.564 132.905 128.347 132.319 129.815C131.83 131.042 130.611 131.818 129.294 131.741L127.969 131.664C126.265 131.566 124.652 132.439 123.801 133.919C122.87 135.541 121.015 136.416 119.168 136.122C117.819 135.908 116.434 136.308 115.414 137.217L115.243 137.369C114.246 138.256 112.938 138.712 111.605 138.634L109.767 138.528C108.266 138.442 106.815 139.086 105.872 140.257C105.021 141.313 103.752 141.946 102.397 141.991L100.828 142.042C99.5043 142.085 98.2849 142.774 97.5622 143.884C96.8336 145.004 95.6007 145.692 94.2656 145.727L92.0005 145.784C90.7214 145.817 89.4668 146.141 88.3332 146.736L85.8085 148.058C85.7253 148.101 85.626 148.041 85.6266 147.947Z" fill="url(#paint17_linear)" fill-opacity="0.6"/>
</g>
<g filter="url(#filter6_iiiii)">
<path d="M707.16 189.573L703.673 198.477C702.961 200.297 703.591 202.368 705.197 203.481L784.141 258.22C785.942 259.468 788.398 259.129 789.793 257.439L804.198 239.984C804.415 239.722 804.598 239.435 804.746 239.128L816.04 215.646C816.228 215.254 816.477 214.893 816.775 214.577L832.285 198.166C832.489 197.95 832.67 197.714 832.824 197.46L844.026 179.03C845.21 177.081 844.632 174.544 842.719 173.302L824.204 161.281L806.501 146.738C806.297 146.57 806.079 146.423 805.847 146.296L787.77 136.419L766.235 120.374C763.855 118.601 760.437 119.778 759.653 122.641L757.131 131.849C756.761 133.202 755.742 134.282 754.413 134.73L751.7 135.645C749.824 136.278 748.642 138.13 748.857 140.099L748.962 141.069C749.226 143.479 747.408 145.614 744.988 145.738L744.566 145.759C742.409 145.869 740.684 147.593 740.572 149.751L740.329 154.39C740.243 156.05 739.19 157.503 737.641 158.103L731.313 160.554C729.964 161.075 728.977 162.253 728.697 163.672L727.861 167.933C727.585 169.336 726.617 170.504 725.29 171.035L719.642 173.293C718.314 173.824 717.346 174.992 717.071 176.395L715.834 182.692C715.551 184.128 714.544 185.316 713.173 185.829L709.609 187.161C708.487 187.581 707.596 188.457 707.16 189.573Z" fill="#FFE7BD"/>
<path d="M707.16 189.573L703.673 198.477C702.961 200.297 703.591 202.368 705.197 203.481L784.141 258.22C785.942 259.468 788.398 259.129 789.793 257.439L804.198 239.984C804.415 239.722 804.598 239.435 804.746 239.128L816.04 215.646C816.228 215.254 816.477 214.893 816.775 214.577L832.285 198.166C832.489 197.95 832.67 197.714 832.824 197.46L844.026 179.03C845.21 177.081 844.632 174.544 842.719 173.302L824.204 161.281L806.501 146.738C806.297 146.57 806.079 146.423 805.847 146.296L787.77 136.419L766.235 120.374C763.855 118.601 760.437 119.778 759.653 122.641L757.131 131.849C756.761 133.202 755.742 134.282 754.413 134.73L751.7 135.645C749.824 136.278 748.642 138.13 748.857 140.099L748.962 141.069C749.226 143.479 747.408 145.614 744.988 145.738L744.566 145.759C742.409 145.869 740.684 147.593 740.572 149.751L740.329 154.39C740.243 156.05 739.19 157.503 737.641 158.103L731.313 160.554C729.964 161.075 728.977 162.253 728.697 163.672L727.861 167.933C727.585 169.336 726.617 170.504 725.29 171.035L719.642 173.293C718.314 173.824 717.346 174.992 717.071 176.395L715.834 182.692C715.551 184.128 714.544 185.316 713.173 185.829L709.609 187.161C708.487 187.581 707.596 188.457 707.16 189.573Z" fill="url(#paint18_linear)"/>
<path d="M707.16 189.573L703.673 198.477C702.961 200.297 703.591 202.368 705.197 203.481L784.141 258.22C785.942 259.468 788.398 259.129 789.793 257.439L804.198 239.984C804.415 239.722 804.598 239.435 804.746 239.128L816.04 215.646C816.228 215.254 816.477 214.893 816.775 214.577L832.285 198.166C832.489 197.95 832.67 197.714 832.824 197.46L844.026 179.03C845.21 177.081 844.632 174.544 842.719 173.302L824.204 161.281L806.501 146.738C806.297 146.57 806.079 146.423 805.847 146.296L787.77 136.419L766.235 120.374C763.855 118.601 760.437 119.778 759.653 122.641L757.131 131.849C756.761 133.202 755.742 134.282 754.413 134.73L751.7 135.645C749.824 136.278 748.642 138.13 748.857 140.099L748.962 141.069C749.226 143.479 747.408 145.614 744.988 145.738L744.566 145.759C742.409 145.869 740.684 147.593 740.572 149.751L740.329 154.39C740.243 156.05 739.19 157.503 737.641 158.103L731.313 160.554C729.964 161.075 728.977 162.253 728.697 163.672L727.861 167.933C727.585 169.336 726.617 170.504 725.29 171.035L719.642 173.293C718.314 173.824 717.346 174.992 717.071 176.395L715.834 182.692C715.551 184.128 714.544 185.316 713.173 185.829L709.609 187.161C708.487 187.581 707.596 188.457 707.16 189.573Z" fill="url(#paint19_radial)"/>
<path d="M707.16 189.573L703.673 198.477C702.961 200.297 703.591 202.368 705.197 203.481L784.141 258.22C785.942 259.468 788.398 259.129 789.793 257.439L804.198 239.984C804.415 239.722 804.598 239.435 804.746 239.128L816.04 215.646C816.228 215.254 816.477 214.893 816.775 214.577L832.285 198.166C832.489 197.95 832.67 197.714 832.824 197.46L844.026 179.03C845.21 177.081 844.632 174.544 842.719 173.302L824.204 161.281L806.501 146.738C806.297 146.57 806.079 146.423 805.847 146.296L787.77 136.419L766.235 120.374C763.855 118.601 760.437 119.778 759.653 122.641L757.131 131.849C756.761 133.202 755.742 134.282 754.413 134.73L751.7 135.645C749.824 136.278 748.642 138.13 748.857 140.099L748.962 141.069C749.226 143.479 747.408 145.614 744.988 145.738L744.566 145.759C742.409 145.869 740.684 147.593 740.572 149.751L740.329 154.39C740.243 156.05 739.19 157.503 737.641 158.103L731.313 160.554C729.964 161.075 728.977 162.253 728.697 163.672L727.861 167.933C727.585 169.336 726.617 170.504 725.29 171.035L719.642 173.293C718.314 173.824 717.346 174.992 717.071 176.395L715.834 182.692C715.551 184.128 714.544 185.316 713.173 185.829L709.609 187.161C708.487 187.581 707.596 188.457 707.16 189.573Z" fill="url(#paint20_radial)"/>
</g>
<path d="M387.735 82.9856C390.06 82.879 391.906 83.5753 393.272 85.0743C394.662 86.5722 395.418 88.6518 395.54 91.313L396.079 103.073L388.131 103.437L387.639 92.6842C387.595 91.7252 387.296 90.9821 386.744 90.4548C386.214 89.9025 385.517 89.6461 384.654 89.6857C383.767 89.7264 383.085 90.0459 382.608 90.6444C382.13 91.2189 381.913 91.9856 381.956 92.9446L382.449 103.697L374.466 104.063L373.536 83.7806L381.52 83.4146L381.661 86.5074C382.241 85.5198 383.032 84.7027 384.036 84.0561C385.063 83.4084 386.296 83.0516 387.735 82.9856ZM405.9 82.0449C407.219 81.9845 408.37 82.208 409.354 82.7154C410.338 83.1989 411.102 83.8966 411.649 84.8086L411.522 82.0395L419.469 81.6752L420.383 101.598C420.469 103.492 420.201 105.234 419.577 106.825C418.953 108.415 417.884 109.713 416.368 110.72C414.876 111.725 412.92 112.283 410.499 112.394C407.238 112.544 404.614 111.895 402.625 110.449C400.662 109.025 399.489 107.013 399.105 104.411L406.945 104.052C407.209 105.097 408.096 105.585 409.607 105.516C410.542 105.473 411.262 105.2 411.767 104.696C412.273 104.192 412.495 103.281 412.435 101.963L412.324 99.5531C411.864 100.511 411.167 101.288 410.233 101.883C409.298 102.455 408.171 102.771 406.853 102.831C405.27 102.904 403.825 102.561 402.517 101.805C401.208 101.024 400.146 99.871 399.332 98.3467C398.54 96.7974 398.095 94.9558 397.997 92.822C397.899 90.6883 398.174 88.8257 398.822 87.2344C399.493 85.618 400.445 84.3731 401.678 83.4997C402.91 82.6024 404.318 82.1174 405.9 82.0449ZM411.987 92.1808C411.937 91.102 411.623 90.2755 411.044 89.7014C410.465 89.1273 409.744 88.86 408.881 88.8996C408.018 88.9392 407.324 89.2713 406.801 89.8959C406.277 90.5205 406.039 91.3723 406.089 92.4512C406.138 93.53 406.452 94.3565 407.031 94.9306C407.61 95.5047 408.331 95.772 409.194 95.7324C410.057 95.6929 410.751 95.3608 411.275 94.7361C411.799 94.1115 412.036 93.2597 411.987 92.1808ZM437.253 80.7159C439.578 80.6093 441.424 81.3056 442.79 82.8046C444.18 84.3025 444.936 86.3821 445.058 89.0433L445.597 100.803L437.65 101.167L437.157 90.4145C437.113 89.4555 436.815 88.7124 436.262 88.1852C435.732 87.6328 435.036 87.3765 434.172 87.416C433.285 87.4567 432.603 87.7762 432.126 88.3747C431.648 88.9492 431.431 89.716 431.475 90.6749L431.968 101.428L423.984 101.794L423.054 81.5109L431.038 81.145L431.18 84.2377C431.759 83.2501 432.551 82.433 433.554 81.7864C434.581 81.1387 435.814 80.7819 437.253 80.7159ZM468.222 89.4231C468.247 89.9745 468.235 90.5036 468.186 91.0104L455.348 91.5988C455.548 93.3435 456.319 94.1851 457.662 94.1235C458.525 94.084 459.13 93.6598 459.477 92.8511L467.929 92.4637C467.707 93.9154 467.155 95.238 466.272 96.4317C465.413 97.6003 464.291 98.5526 462.908 99.2888C461.547 99.9998 460.027 100.394 458.349 100.471C456.335 100.563 454.518 100.226 452.897 99.4593C451.3 98.6916 450.023 97.5489 449.064 96.0312C448.128 94.4884 447.612 92.6621 447.516 90.5524C447.419 88.4426 447.766 86.5887 448.558 84.9908C449.373 83.3678 450.54 82.101 452.06 81.1905C453.604 80.2788 455.382 79.7769 457.396 79.6845C459.41 79.5922 461.216 79.9299 462.812 80.6976C464.432 81.4402 465.709 82.559 466.642 84.0538C467.599 85.5475 468.126 87.3373 468.222 89.4231ZM460.043 87.888C460.012 87.2167 459.773 86.7231 459.326 86.4072C458.878 86.0674 458.33 85.9123 457.683 85.942C456.269 86.0068 455.473 86.728 455.296 88.1056L460.043 87.888ZM469.676 89.5366C469.578 87.4029 469.853 85.5403 470.501 83.949C471.172 82.3326 472.124 81.0877 473.357 80.2143C474.589 79.3169 475.996 78.832 477.579 78.7595C478.897 78.699 480.049 78.9225 481.033 79.43C482.016 79.9135 482.781 80.6112 483.327 81.5232L483.2 78.7541L491.148 78.3898L492.078 98.6725L484.13 99.0368L484.003 96.2677C483.543 97.2258 482.845 98.0025 481.912 98.5979C480.977 99.1693 479.85 99.4852 478.531 99.5457C476.949 99.6182 475.504 99.276 474.196 98.5191C472.887 97.7382 471.825 96.5856 471.01 95.0613C470.219 93.512 469.774 91.6704 469.676 89.5366ZM483.665 88.8954C483.616 87.8166 483.302 86.9901 482.723 86.416C482.144 85.8419 481.423 85.5746 480.56 85.6142C479.697 85.6537 479.003 85.9858 478.479 86.6105C477.955 87.2351 477.718 88.0869 477.767 89.1658C477.817 90.2446 478.131 91.0711 478.71 91.6452C479.289 92.2193 480.01 92.4866 480.873 92.447C481.736 92.4074 482.43 92.0753 482.953 91.4507C483.477 90.826 483.715 89.9743 483.665 88.8954ZM507.974 91.1327L508.285 97.9296L505.265 98.0681C499.702 98.323 496.794 95.6814 496.541 90.1432L496.297 84.8208L493.779 84.9362L493.474 78.2832L495.992 78.1678L495.768 73.2769L503.751 72.911L503.975 77.8018L507.284 77.6502L507.589 84.3032L504.28 84.4549L504.531 89.9211C504.553 90.4006 504.677 90.7433 504.902 90.9492C505.152 91.154 505.54 91.2443 506.068 91.2201L507.974 91.1327Z" fill="white"/>
</g>
<defs>
<filter id="filter0_dddd" x="1.67163" y="11.4483" width="167.296" height="170.615" filterUnits="userSpaceOnUse" color-interpolation-filters="sRGB">
<feFlood flood-opacity="0" result="BackgroundImageFix"/>
<feColorMatrix in="SourceAlpha" type="matrix" values="0 0 0 0 0 0 0 0 0 0 0 0 0 0 0 0 0 0 127 0"/>
<feOffset dx="-23" dy="18"/>
<feGaussianBlur stdDeviation="8.5"/>
<feColorMatrix type="matrix" values="0 0 0 0 0.114236 0 0 0 0 0.291792 0 0 0 0 0.391667 0 0 0 0.3 0"/>
<feBlend mode="normal" in2="BackgroundImageFix" result="effect1_dropShadow"/>
<feColorMatrix in="SourceAlpha" type="matrix" values="0 0 0 0 0 0 0 0 0 0 0 0 0 0 0 0 0 0 127 0"/>
<feOffset dx="-20" dy="20"/>
<feGaussianBlur stdDeviation="4"/>
<feColorMatrix type="matrix" values="0 0 0 0 0.654167 0 0 0 0 0.323922 0 0 0 0 0.0190799 0 0 0 0.21 0"/>
<feBlend mode="normal" in2="effect1_dropShadow" result="effect2_dropShadow"/>
<feColorMatrix in="SourceAlpha" type="matrix" values="0 0 0 0 0 0 0 0 0 0 0 0 0 0 0 0 0 0 127 0"/>
<feOffset/>
<feGaussianBlur stdDeviation="7"/>
<feColorMatrix type="matrix" values="0 0 0 0 0.666667 0 0 0 0 0.352941 0 0 0 0 0.101961 0 0 0 0.2 0"/>
<feBlend mode="normal" in2="effect2_dropShadow" result="effect3_dropShadow"/>
<feColorMatrix in="SourceAlpha" type="matrix" values="0 0 0 0 0 0 0 0 0 0 0 0 0 0 0 0 0 0 127 0"/>
<feOffset dx="6" dy="23"/>
<feGaussianBlur stdDeviation="3.5"/>
<feColorMatrix type="matrix" values="0 0 0 0 0.575 0 0 0 0 0.27419 0 0 0 0 0.0335417 0 0 0 0.1 0"/>
<feBlend mode="normal" in2="effect3_dropShadow" result="effect4_dropShadow"/>
<feBlend mode="normal" in="SourceGraphic" in2="effect4_dropShadow" result="shape"/>
</filter>
<filter id="filter1_dd" x="314.539" y="317.649" width="240.223" height="66.3784" filterUnits="userSpaceOnUse" color-interpolation-filters="sRGB">
<feFlood flood-opacity="0" result="BackgroundImageFix"/>
<feColorMatrix in="SourceAlpha" type="matrix" values="0 0 0 0 0 0 0 0 0 0 0 0 0 0 0 0 0 0 127 0"/>
<feOffset dy="3"/>
<feGaussianBlur stdDeviation="5"/>
<feColorMatrix type="matrix" values="0 0 0 0 0 0 0 0 0 0 0 0 0 0 0 0 0 0 0.1 0"/>
<feBlend mode="normal" in2="BackgroundImageFix" result="effect1_dropShadow"/>
<feColorMatrix in="SourceAlpha" type="matrix" values="0 0 0 0 0 0 0 0 0 0 0 0 0 0 0 0 0 0 127 0"/>
<feOffset dy="3"/>
<feGaussianBlur stdDeviation="1.5"/>
<feColorMatrix type="matrix" values="0 0 0 0 0 0 0 0 0 0 0 0 0 0 0 0 0 0 0.05 0"/>
<feBlend mode="normal" in2="effect1_dropShadow" result="effect2_dropShadow"/>
<feBlend mode="normal" in="SourceGraphic" in2="effect2_dropShadow" result="shape"/>
</filter>
<filter id="filter2_d" x="696.63" y="340.615" width="77.0888" height="19.7623" filterUnits="userSpaceOnUse" color-interpolation-filters="sRGB">
<feFlood flood-opacity="0" result="BackgroundImageFix"/>
<feColorMatrix in="SourceAlpha" type="matrix" values="0 0 0 0 0 0 0 0 0 0 0 0 0 0 0 0 0 0 127 0"/>
<feOffset dx="2" dy="2"/>
<feGaussianBlur stdDeviation="1"/>
<feColorMatrix type="matrix" values="0 0 0 0 1 0 0 0 0 1 0 0 0 0 1 0 0 0 0.25 0"/>
<feBlend mode="normal" in2="BackgroundImageFix" result="effect1_dropShadow"/>
<feBlend mode="normal" in="SourceGraphic" in2="effect1_dropShadow" result="shape"/>
</filter>
<filter id="filter3_dddd" x="663.382" y="105.537" width="195.258" height="188.434" filterUnits="userSpaceOnUse" color-interpolation-filters="sRGB">
<feFlood flood-opacity="0" result="BackgroundImageFix"/>
<feColorMatrix in="SourceAlpha" type="matrix" values="0 0 0 0 0 0 0 0 0 0 0 0 0 0 0 0 0 0 127 0"/>
<feOffset dx="-23" dy="18"/>
<feGaussianBlur stdDeviation="8.5"/>
<feColorMatrix type="matrix" values="0 0 0 0 0.114236 0 0 0 0 0.291792 0 0 0 0 0.391667 0 0 0 0.3 0"/>
<feBlend mode="normal" in2="BackgroundImageFix" result="effect1_dropShadow"/>
<feColorMatrix in="SourceAlpha" type="matrix" values="0 0 0 0 0 0 0 0 0 0 0 0 0 0 0 0 0 0 127 0"/>
<feOffset dx="-20" dy="20"/>
<feGaussianBlur stdDeviation="4"/>
<feColorMatrix type="matrix" values="0 0 0 0 0.654167 0 0 0 0 0.323922 0 0 0 0 0.0190799 0 0 0 0.21 0"/>
<feBlend mode="normal" in2="effect1_dropShadow" result="effect2_dropShadow"/>
<feColorMatrix in="SourceAlpha" type="matrix" values="0 0 0 0 0 0 0 0 0 0 0 0 0 0 0 0 0 0 127 0"/>
<feOffset/>
<feGaussianBlur stdDeviation="7"/>
<feColorMatrix type="matrix" values="0 0 0 0 0.666667 0 0 0 0 0.352941 0 0 0 0 0.101961 0 0 0 0.2 0"/>
<feBlend mode="normal" in2="effect2_dropShadow" result="effect3_dropShadow"/>
<feColorMatrix in="SourceAlpha" type="matrix" values="0 0 0 0 0 0 0 0 0 0 0 0 0 0 0 0 0 0 127 0"/>
<feOffset dx="3" dy="20"/>
<feGaussianBlur stdDeviation="3.5"/>
<feColorMatrix type="matrix" values="0 0 0 0 0.575 0 0 0 0 0.27419 0 0 0 0 0.0335417 0 0 0 0.1 0"/>
<feBlend mode="normal" in2="effect3_dropShadow" result="effect4_dropShadow"/>
<feBlend mode="normal" in="SourceGraphic" in2="effect4_dropShadow" result="shape"/>
</filter>
<filter id="filter4_iiiii" x="37.6717" y="22.4483" width="121.296" height="129.615" filterUnits="userSpaceOnUse" color-interpolation-filters="sRGB">
<feFlood flood-opacity="0" result="BackgroundImageFix"/>
<feBlend mode="normal" in="SourceGraphic" in2="BackgroundImageFix" result="shape"/>
<feColorMatrix in="SourceAlpha" type="matrix" values="0 0 0 0 0 0 0 0 0 0 0 0 0 0 0 0 0 0 127 0" result="hardAlpha"/>
<feOffset dx="-4" dy="4"/>
<feGaussianBlur stdDeviation="5"/>
<feComposite in2="hardAlpha" operator="arithmetic" k2="-1" k3="1"/>
<feColorMatrix type="matrix" values="0 0 0 0 1 0 0 0 0 0.931481 0 0 0 0 0.845833 0 0 0 1 0"/>
<feBlend mode="normal" in2="shape" result="effect1_innerShadow"/>
<feColorMatrix in="SourceAlpha" type="matrix" values="0 0 0 0 0 0 0 0 0 0 0 0 0 0 0 0 0 0 127 0" result="hardAlpha"/>
<feOffset dx="-3" dy="5"/>
<feGaussianBlur stdDeviation="5.5"/>
<feComposite in2="hardAlpha" operator="arithmetic" k2="-1" k3="1"/>
<feColorMatrix type="matrix" values="0 0 0 0 1 0 0 0 0 1 0 0 0 0 1 0 0 0 0.3 0"/>
<feBlend mode="normal" in2="effect1_innerShadow" result="effect2_innerShadow"/>
<feColorMatrix in="SourceAlpha" type="matrix" values="0 0 0 0 0 0 0 0 0 0 0 0 0 0 0 0 0 0 127 0" result="hardAlpha"/>
<feOffset dx="7" dy="-12"/>
<feGaussianBlur stdDeviation="1.5"/>
<feComposite in2="hardAlpha" operator="arithmetic" k2="-1" k3="1"/>
<feColorMatrix type="matrix" values="0 0 0 0 1 0 0 0 0 1 0 0 0 0 1 0 0 0 0.5 0"/>
<feBlend mode="normal" in2="effect2_innerShadow" result="effect3_innerShadow"/>
<feColorMatrix in="SourceAlpha" type="matrix" values="0 0 0 0 0 0 0 0 0 0 0 0 0 0 0 0 0 0 127 0" result="hardAlpha"/>
<feOffset dx="8" dy="-4"/>
<feGaussianBlur stdDeviation="1.5"/>
<feComposite in2="hardAlpha" operator="arithmetic" k2="-1" k3="1"/>
<feColorMatrix type="matrix" values="0 0 0 0 0.925 0 0 0 0 0.749421 0 0 0 0 0.608958 0 0 0 1 0"/>
<feBlend mode="normal" in2="effect3_innerShadow" result="effect4_innerShadow"/>
<feColorMatrix in="SourceAlpha" type="matrix" values="0 0 0 0 0 0 0 0 0 0 0 0 0 0 0 0 0 0 127 0" result="hardAlpha"/>
<feOffset dx="4" dy="-1"/>
<feGaussianBlur stdDeviation="2.5"/>
<feComposite in2="hardAlpha" operator="arithmetic" k2="-1" k3="1"/>
<feColorMatrix type="matrix" values="0 0 0 0 0 0 0 0 0 0 0 0 0 0 0 0 0 0 0.2 0"/>
<feBlend mode="normal" in2="effect4_innerShadow" result="effect5_innerShadow"/>
</filter>
<filter id="filter5_ii" x="85.6266" y="105.248" width="68.6756" height="44.8241" filterUnits="userSpaceOnUse" color-interpolation-filters="sRGB">
<feFlood flood-opacity="0" result="BackgroundImageFix"/>
<feBlend mode="normal" in="SourceGraphic" in2="BackgroundImageFix" result="shape"/>
<feColorMatrix in="SourceAlpha" type="matrix" values="0 0 0 0 0 0 0 0 0 0 0 0 0 0 0 0 0 0 127 0" result="hardAlpha"/>
<feOffset dy="2"/>
<feGaussianBlur stdDeviation="1"/>
<feComposite in2="hardAlpha" operator="arithmetic" k2="-1" k3="1"/>
<feColorMatrix type="matrix" values="0 0 0 0 1 0 0 0 0 0.921569 0 0 0 0 0.721569 0 0 0 1 0"/>
<feBlend mode="normal" in2="shape" result="effect1_innerShadow"/>
<feColorMatrix in="SourceAlpha" type="matrix" values="0 0 0 0 0 0 0 0 0 0 0 0 0 0 0 0 0 0 127 0" result="hardAlpha"/>
<feOffset dy="-2"/>
<feGaussianBlur stdDeviation="2.5"/>
<feComposite in2="hardAlpha" operator="arithmetic" k2="-1" k3="1"/>
<feColorMatrix type="matrix" values="0 0 0 0 0.756863 0 0 0 0 0.611765 0 0 0 0 0.494118 0 0 0 1 0"/>
<feBlend mode="normal" in2="effect1_innerShadow" result="effect2_innerShadow"/>
</filter>
<filter id="filter6_iiiii" x="699.382" y="116.537" width="149.258" height="147.434" filterUnits="userSpaceOnUse" color-interpolation-filters="sRGB">
<feFlood flood-opacity="0" result="BackgroundImageFix"/>
<feBlend mode="normal" in="SourceGraphic" in2="BackgroundImageFix" result="shape"/>
<feColorMatrix in="SourceAlpha" type="matrix" values="0 0 0 0 0 0 0 0 0 0 0 0 0 0 0 0 0 0 127 0" result="hardAlpha"/>
<feOffset dx="-4" dy="4"/>
<feGaussianBlur stdDeviation="5"/>
<feComposite in2="hardAlpha" operator="arithmetic" k2="-1" k3="1"/>
<feColorMatrix type="matrix" values="0 0 0 0 1 0 0 0 0 0.931481 0 0 0 0 0.845833 0 0 0 1 0"/>
<feBlend mode="normal" in2="shape" result="effect1_innerShadow"/>
<feColorMatrix in="SourceAlpha" type="matrix" values="0 0 0 0 0 0 0 0 0 0 0 0 0 0 0 0 0 0 127 0" result="hardAlpha"/>
<feOffset dx="-3" dy="5"/>
<feGaussianBlur stdDeviation="5.5"/>
<feComposite in2="hardAlpha" operator="arithmetic" k2="-1" k3="1"/>
<feColorMatrix type="matrix" values="0 0 0 0 1 0 0 0 0 1 0 0 0 0 1 0 0 0 0.2 0"/>
<feBlend mode="normal" in2="effect1_innerShadow" result="effect2_innerShadow"/>
<feColorMatrix in="SourceAlpha" type="matrix" values="0 0 0 0 0 0 0 0 0 0 0 0 0 0 0 0 0 0 127 0" result="hardAlpha"/>
<feOffset dx="2" dy="-6"/>
<feGaussianBlur stdDeviation="1.5"/>
<feComposite in2="hardAlpha" operator="arithmetic" k2="-1" k3="1"/>
<feColorMatrix type="matrix" values="0 0 0 0 1 0 0 0 0 1 0 0 0 0 1 0 0 0 0.4 0"/>
<feBlend mode="normal" in2="effect2_innerShadow" result="effect3_innerShadow"/>
<feColorMatrix in="SourceAlpha" type="matrix" values="0 0 0 0 0 0 0 0 0 0 0 0 0 0 0 0 0 0 127 0" result="hardAlpha"/>
<feOffset dx="8" dy="-4"/>
<feGaussianBlur stdDeviation="1.5"/>
<feComposite in2="hardAlpha" operator="arithmetic" k2="-1" k3="1"/>
<feColorMatrix type="matrix" values="0 0 0 0 0.925 0 0 0 0 0.749421 0 0 0 0 0.608958 0 0 0 1 0"/>
<feBlend mode="normal" in2="effect3_innerShadow" result="effect4_innerShadow"/>
<feColorMatrix in="SourceAlpha" type="matrix" values="0 0 0 0 0 0 0 0 0 0 0 0 0 0 0 0 0 0 127 0" result="hardAlpha"/>
<feOffset dx="4" dy="-1"/>
<feGaussianBlur stdDeviation="2.5"/>
<feComposite in2="hardAlpha" operator="arithmetic" k2="-1" k3="1"/>
<feColorMatrix type="matrix" values="0 0 0 0 0 0 0 0 0 0 0 0 0 0 0 0 0 0 0.2 0"/>
<feBlend mode="normal" in2="effect4_innerShadow" result="effect5_innerShadow"/>
</filter>
<linearGradient id="paint0_linear" x1="240.461" y1="73.7837" x2="122.134" y2="220.61" gradientUnits="userSpaceOnUse">
<stop stop-color="white"/>
<stop offset="1" stop-color="white" stop-opacity="0"/>
</linearGradient>
<linearGradient id="paint1_linear" x1="869.93" y1="246.644" x2="694.966" y2="316.899" gradientUnits="userSpaceOnUse">
<stop stop-color="white"/>
<stop offset="1" stop-color="white" stop-opacity="0"/>
</linearGradient>
<linearGradient id="paint2_linear" x1="56.6437" y1="201.06" x2="46.737" y2="213.019" gradientUnits="userSpaceOnUse">
<stop stop-color="white"/>
<stop offset="1" stop-color="white" stop-opacity="0"/>
</linearGradient>
<linearGradient id="paint3_linear" x1="35.7459" y1="192.57" x2="26.0001" y2="195.095" gradientUnits="userSpaceOnUse">
<stop stop-color="white"/>
<stop offset="1" stop-color="white" stop-opacity="0"/>
</linearGradient>
<linearGradient id="paint4_linear" x1="441.5" y1="0" x2="441.5" y2="1046.06" gradientUnits="userSpaceOnUse">
<stop stop-color="#A97C24" stop-opacity="0.15"/>
<stop offset="1" stop-color="white" stop-opacity="0"/>
</linearGradient>
<linearGradient id="paint5_linear" x1="441.5" y1="-16.8649" x2="441.5" y2="848.254" gradientUnits="userSpaceOnUse">
<stop stop-color="#FFDA92" stop-opacity="0.33"/>
<stop offset="1" stop-color="white" stop-opacity="0"/>
</linearGradient>
<linearGradient id="paint6_linear" x1="191.246" y1="30.9705" x2="72.9204" y2="177.798" gradientUnits="userSpaceOnUse">
<stop stop-color="white"/>
<stop offset="1" stop-color="white" stop-opacity="0"/>
</linearGradient>
<linearGradient id="paint7_linear" x1="157.297" y1="101.433" x2="50.2793" y2="56.4555" gradientUnits="userSpaceOnUse">
<stop stop-color="white"/>
<stop offset="1" stop-color="white" stop-opacity="0"/>
</linearGradient>
<radialGradient id="paint8_radial" cx="0" cy="0" r="1" gradientUnits="userSpaceOnUse" gradientTransform="translate(119.696 95.3457) rotate(-121.449) scale(152.117 295.771)">
<stop stop-color="#FFEDC0"/>
<stop offset="1" stop-color="white" stop-opacity="0"/>
</radialGradient>
<radialGradient id="paint9_radial" cx="0" cy="0" r="1" gradientUnits="userSpaceOnUse" gradientTransform="translate(93.9881 56.6031) rotate(-119.686) scale(55.5837 108.073)">
<stop stop-color="#FFAE11" stop-opacity="0.03"/>
<stop offset="1" stop-color="white" stop-opacity="0"/>
</radialGradient>
<linearGradient id="paint10_linear" x1="669.381" y1="122.843" x2="843.853" y2="170.357" gradientUnits="userSpaceOnUse">
<stop stop-color="white"/>
<stop offset="1" stop-color="white" stop-opacity="0"/>
</linearGradient>
<linearGradient id="paint11_linear" x1="719.184" y1="195.957" x2="834.875" y2="186.481" gradientUnits="userSpaceOnUse">
<stop stop-color="white"/>
<stop offset="1" stop-color="white" stop-opacity="0"/>
</linearGradient>
<radialGradient id="paint12_radial" cx="0" cy="0" r="1" gradientUnits="userSpaceOnUse" gradientTransform="translate(755.349 183.997) rotate(31.0593) scale(102.006 198.398)">
<stop stop-color="#FFEFC6"/>
<stop offset="1" stop-color="white" stop-opacity="0"/>
</radialGradient>
<radialGradient id="paint13_radial" cx="0" cy="0" r="1" gradientUnits="userSpaceOnUse" gradientTransform="translate(796.03 206.497) rotate(32.8276) scale(55.575 108.09)">
<stop stop-color="#FFAE11" stop-opacity="0.03"/>
<stop offset="1" stop-color="white" stop-opacity="0"/>
</radialGradient>
<linearGradient id="paint14_linear" x1="157.297" y1="101.433" x2="50.2794" y2="56.4555" gradientUnits="userSpaceOnUse">
<stop stop-color="white"/>
<stop offset="1" stop-color="white" stop-opacity="0"/>
</linearGradient>
<radialGradient id="paint15_radial" cx="0" cy="0" r="1" gradientUnits="userSpaceOnUse" gradientTransform="translate(119.696 95.3457) rotate(-121.449) scale(152.117 295.771)">
<stop stop-color="#FFEDC0"/>
<stop offset="1" stop-color="white" stop-opacity="0"/>
</radialGradient>
<radialGradient id="paint16_radial" cx="0" cy="0" r="1" gradientUnits="userSpaceOnUse" gradientTransform="translate(93.9881 56.6031) rotate(-119.686) scale(55.5837 108.073)">
<stop stop-color="#FFAE11" stop-opacity="0.03"/>
<stop offset="1" stop-color="white" stop-opacity="0"/>
</radialGradient>
<linearGradient id="paint17_linear" x1="87.6091" y1="124.294" x2="152.732" y2="122.246" gradientUnits="userSpaceOnUse">
<stop stop-color="#D9AF8E"/>
<stop offset="0.046875" stop-color="#FFEDC2"/>
<stop offset="0.0989583" stop-color="#D9AF8E"/>
<stop offset="0.182292" stop-color="#FFEDC0"/>
<stop offset="0.244792" stop-color="#D9AF8E"/>
<stop offset="0.317708" stop-color="#FFEDC0"/>
<stop offset="0.390625" stop-color="#D9AF8E"/>
<stop offset="0.46875" stop-color="#FFEDC0"/>
<stop offset="0.541667" stop-color="#D9AF8E"/>
<stop offset="0.609375" stop-color="#FFEDC0"/>
<stop offset="0.666667" stop-color="#D9AF8E"/>
<stop offset="0.739583" stop-color="#FFEDC0"/>
<stop offset="0.828125" stop-color="#D9AF8E"/>
<stop offset="0.911458" stop-color="#FFEDC0"/>
<stop offset="1" stop-color="#D9AF8E"/>
</linearGradient>
<linearGradient id="paint18_linear" x1="719.184" y1="195.957" x2="834.875" y2="186.481" gradientUnits="userSpaceOnUse">
<stop stop-color="white"/>
<stop offset="1" stop-color="white" stop-opacity="0"/>
</linearGradient>
<radialGradient id="paint19_radial" cx="0" cy="0" r="1" gradientUnits="userSpaceOnUse" gradientTransform="translate(755.349 183.997) rotate(31.0593) scale(102.006 198.398)">
<stop stop-color="#FFEFC6"/>
<stop offset="1" stop-color="white" stop-opacity="0"/>
</radialGradient>
<radialGradient id="paint20_radial" cx="0" cy="0" r="1" gradientUnits="userSpaceOnUse" gradientTransform="translate(796.03 206.497) rotate(32.8276) scale(55.575 108.09)">
<stop stop-color="#FFAE11" stop-opacity="0.03"/>
<stop offset="1" stop-color="white" stop-opacity="0"/>
</radialGradient>
<clipPath id="clip0">
<rect width="883" height="390" fill="white"/>
</clipPath>
</defs>
</svg>
