<svg width="307" height="715" viewBox="0 0 307 715" fill="none" xmlns="http://www.w3.org/2000/svg">
<g clip-path="url(#clip0)">
<path d="M87.7143 -124.454V658.874H216.849V-124.454H87.7143Z" stroke="#A2724E" stroke-width="3"/>
<path d="M0.637588 362.21C0.285459 355.482 5.44684 349.74 12.1659 349.389L287.113 334.957C293.833 334.603 299.566 339.774 299.917 346.502L304.381 431.794C304.732 438.524 299.571 444.264 292.851 444.618L17.9041 459.049C11.1851 459.401 5.45281 454.232 5.10069 447.502L0.637588 362.21Z" fill="#482307"/>
<path d="M55.923 489.141C56.1668 482.75 61.545 477.765 67.9351 478.009L236.863 484.457C243.253 484.703 248.237 490.082 247.991 496.473L245.078 572.859C244.835 579.252 239.455 584.235 233.066 583.991L64.1375 577.543C57.7473 577.299 52.7647 571.918 53.0086 565.527L55.923 489.141Z" fill="#E15549"/>
<path d="M11.0018 621.234C10.8914 614.885 15.927 609.647 22.2491 609.536L280.953 605.002C287.275 604.891 292.489 609.948 292.599 616.297L293.998 696.768C294.11 703.117 289.073 708.353 282.751 708.464L24.0474 712.998C17.7253 713.109 12.5108 708.052 12.4005 701.703L11.0018 621.234Z" fill="#482307"/>
<path d="M59.165 385.636C63.2982 385.424 66.5863 386.644 69.0292 389.295C71.5148 391.945 72.8788 395.635 73.1212 400.364L74.1924 421.265L60.067 421.989L59.0875 402.878C59.0001 401.174 58.4626 399.855 57.4749 398.923C56.5277 397.947 55.2871 397.498 53.7531 397.576C52.1765 397.657 50.967 398.232 50.1246 399.3C49.28 400.326 48.9014 401.691 48.9887 403.396L49.9682 422.507L35.7788 423.234L33.9312 387.185L48.1206 386.458L48.4023 391.955C49.4229 390.194 50.8219 388.733 52.5996 387.574C54.4199 386.413 56.6083 385.767 59.165 385.636ZM91.4498 383.789C93.7934 383.668 95.8425 384.055 97.5971 384.947C99.3496 385.798 100.716 387.031 101.696 388.646L101.444 383.725L115.569 383.001L117.384 418.411C117.556 421.777 117.096 424.876 116.002 427.709C114.908 430.542 113.019 432.861 110.335 434.665C107.693 436.466 104.22 437.477 99.9163 437.698C94.1212 437.995 89.4494 436.867 85.9007 434.315C82.3969 431.803 80.2916 428.237 79.5848 423.616L93.5185 422.902C93.9981 424.757 95.5802 425.616 98.2646 425.478C99.9265 425.393 101.204 424.901 102.098 424C102.992 423.1 103.379 421.478 103.258 419.134L103.039 414.852C102.229 416.56 100.997 417.947 99.3432 419.015C97.6868 420.04 95.6868 420.612 93.3432 420.732C90.5309 420.876 87.9585 420.282 85.6258 418.949C83.291 417.573 81.3922 415.534 79.9293 412.832C78.5068 410.086 77.6984 406.816 77.5041 403.024C77.3097 399.231 77.7807 395.917 78.917 393.082C80.0938 390.202 81.7743 387.98 83.9584 386.415C86.1403 384.808 88.6375 383.933 91.4498 383.789ZM102.367 401.749C102.269 399.832 101.703 398.366 100.668 397.351C99.6334 396.335 98.3491 395.867 96.8151 395.946C95.2811 396.025 94.0514 396.622 93.1259 397.737C92.2005 398.853 91.7869 400.369 91.8852 402.287C91.9835 404.204 92.5499 405.67 93.5846 406.685C94.6192 407.7 95.9035 408.169 97.4375 408.09C98.9715 408.011 100.201 407.414 101.127 406.299C102.052 405.183 102.466 403.667 102.367 401.749ZM147.174 381.125C151.308 380.913 154.596 382.133 157.039 384.785C159.524 387.434 160.888 391.124 161.131 395.854L162.202 416.754L148.076 417.478L147.097 398.367C147.01 396.663 146.472 395.345 145.484 394.413C144.537 393.436 143.297 392.987 141.763 393.065C140.186 393.146 138.976 393.721 138.134 394.789C137.289 395.815 136.911 397.18 136.998 398.885L137.978 417.996L123.788 418.723L121.941 382.674L136.13 381.947L136.412 387.444C137.432 385.683 138.831 384.223 140.609 383.063C142.429 381.902 144.618 381.256 147.174 381.125ZM202.313 396.306C202.363 397.286 202.347 398.227 202.265 399.128L179.447 400.298C179.82 403.398 181.199 404.886 183.585 404.764C185.119 404.685 186.191 403.926 186.801 402.484L201.821 401.715C201.441 404.297 200.472 406.654 198.915 408.785C197.399 410.87 195.414 412.574 192.961 413.896C190.548 415.173 187.851 415.888 184.868 416.041C181.289 416.225 178.055 415.643 175.166 414.295C172.32 412.946 170.038 410.927 168.319 408.238C166.641 405.504 165.706 402.263 165.514 398.513C165.321 394.763 165.921 391.464 167.313 388.616C168.746 385.723 170.809 383.459 173.502 381.826C176.238 380.191 179.395 379.281 182.975 379.098C186.554 378.914 189.767 379.497 192.613 380.847C195.499 382.151 197.78 384.128 199.453 386.776C201.17 389.422 202.123 392.599 202.313 396.306ZM187.758 393.656C187.697 392.463 187.268 391.588 186.47 391.03C185.67 390.43 184.695 390.16 183.545 390.219C181.031 390.348 179.623 391.638 179.321 394.088L187.758 393.656ZM204.899 396.494C204.705 392.702 205.176 389.388 206.312 386.553C207.489 383.673 209.17 381.451 211.354 379.886C213.536 378.279 216.033 377.403 218.845 377.259C221.189 377.139 223.238 377.525 224.992 378.418C226.745 379.268 228.111 380.501 229.091 382.117L228.839 377.196L242.964 376.472L244.812 412.52L230.687 413.244L230.434 408.323C229.625 410.03 228.393 411.418 226.738 412.485C225.082 413.51 223.082 414.083 220.739 414.203C217.926 414.347 215.354 413.752 213.021 412.419C210.686 411.044 208.787 409.005 207.325 406.303C205.902 403.556 205.094 400.287 204.899 396.494ZM229.763 395.22C229.664 393.302 229.098 391.836 228.063 390.821C227.029 389.806 225.744 389.338 224.21 389.416C222.676 389.495 221.447 390.092 220.521 391.208C219.596 392.323 219.182 393.84 219.28 395.757C219.379 397.675 219.945 399.141 220.98 400.156C222.014 401.171 223.299 401.639 224.833 401.561C226.367 401.482 227.596 400.885 228.522 399.769C229.447 398.654 229.861 397.137 229.763 395.22ZM272.999 398.964L273.618 411.044L268.249 411.319C258.364 411.826 253.168 407.157 252.664 397.314L252.179 387.855L247.705 388.084L247.099 376.26L251.573 376.03L251.128 367.338L265.317 366.61L265.762 375.303L271.643 375.002L272.249 386.826L266.368 387.128L266.866 396.843C266.91 397.695 267.134 398.303 267.537 398.667C267.982 399.029 268.674 399.185 269.611 399.137L272.999 398.964Z" fill="white"/>
<path d="M129.931 508.47L128.122 553.745L113.925 553.178L114.63 535.528L101.137 534.989L100.432 552.639L86.2354 552.072L88.0443 506.796L102.241 507.363L101.589 523.67L115.083 524.209L115.734 507.902L129.931 508.47ZM156.554 555.33C152.291 555.159 148.408 554.001 144.907 551.854C141.449 549.709 138.746 546.825 136.798 543.203C134.851 539.581 133.965 535.554 134.143 531.12C134.32 526.686 135.523 522.742 137.754 519.286C139.984 515.831 142.908 513.194 146.525 511.374C150.186 509.514 154.148 508.668 158.411 508.839C162.675 509.009 166.535 510.167 169.994 512.312C173.454 514.414 176.137 517.276 178.042 520.896C179.989 524.518 180.875 528.546 180.697 532.98C180.52 537.414 179.316 541.358 177.086 544.813C174.898 548.27 171.974 550.928 168.313 552.789C164.694 554.651 160.775 555.498 156.554 555.33ZM157.083 542.092C159.897 542.205 162.107 541.396 163.713 539.667C165.321 537.895 166.186 535.474 166.309 532.405C166.433 529.293 165.764 526.811 164.301 524.959C162.839 523.064 160.701 522.061 157.888 521.948C155.031 521.834 152.799 522.663 151.191 524.435C149.585 526.164 148.719 528.585 148.595 531.697C148.472 534.767 149.142 537.249 150.603 539.143C152.067 540.995 154.226 541.978 157.083 542.092ZM222.271 512.159L221.822 523.414L209.799 522.934L208.44 556.954L194.243 556.387L195.602 522.366L183.708 521.891L184.158 510.636L222.271 512.159Z" fill="white"/>
<path d="M81.161 636.471L81.3352 647.734L69.3046 647.92L69.831 681.964L55.6247 682.183L55.0983 648.139L43.1957 648.323L43.0216 637.061L81.161 636.471ZM107.799 681.825C103.533 681.891 99.5924 680.949 95.9778 678.999C92.4059 677.049 89.5473 674.319 87.4022 670.811C85.257 667.302 84.1501 663.329 84.0815 658.893C84.0129 654.456 84.9965 650.451 87.0321 646.878C89.0678 643.304 91.8409 640.509 95.3515 638.492C98.904 636.431 102.813 635.368 107.08 635.302C111.346 635.236 115.265 636.179 118.837 638.129C122.408 640.037 125.245 642.745 127.347 646.254C129.492 649.763 130.599 653.736 130.668 658.172C130.737 662.609 129.753 666.614 127.717 670.187C125.724 673.76 122.952 676.577 119.399 678.637C115.889 680.697 112.022 681.759 107.799 681.825ZM107.594 668.578C110.41 668.535 112.572 667.605 114.08 665.79C115.587 663.932 116.317 661.467 116.27 658.395C116.222 655.281 115.416 652.84 113.852 651.071C112.288 649.261 110.098 648.377 107.282 648.421C104.424 648.465 102.241 649.416 100.734 651.274C99.2256 653.09 98.4956 655.555 98.5438 658.669C98.5913 661.741 99.3971 664.182 100.961 665.993C102.525 667.761 104.736 668.623 107.594 668.578ZM165.093 673.642L149.991 673.876L147.857 680.757L132.946 680.988L148.82 635.425L165.202 635.172L182.413 680.223L167.438 680.455L165.093 673.642ZM161.472 663.009L157.181 650.466L153.281 663.135L161.472 663.009ZM203.373 680.347C197.955 680.431 193.456 679.242 189.876 676.779C186.338 674.274 184.382 670.57 184.008 665.669L199.11 665.435C199.363 668.034 200.535 669.318 202.626 669.285C203.394 669.273 204.031 669.093 204.538 668.744C205.086 668.351 205.355 667.771 205.343 667.003C205.326 665.936 204.737 665.092 203.576 664.47C202.413 663.805 200.609 663.065 198.165 662.249C195.248 661.27 192.822 660.305 190.887 659.354C188.995 658.401 187.351 656.997 185.957 655.141C184.563 653.285 183.864 650.885 183.862 647.941C183.816 644.997 184.524 642.49 185.986 640.419C187.489 638.305 189.534 636.694 192.12 635.588C194.748 634.48 197.705 633.901 200.99 633.85C206.536 633.765 210.95 634.976 214.232 637.486C217.556 639.995 219.34 643.573 219.582 648.221L204.288 648.457C204.226 647.178 203.891 646.266 203.286 645.72C202.68 645.175 201.95 644.909 201.097 644.922C200.5 644.931 200.012 645.152 199.635 645.585C199.257 645.975 199.074 646.532 199.085 647.257C199.101 648.281 199.669 649.126 200.788 649.791C201.95 650.413 203.775 651.175 206.264 652.075C209.139 653.097 211.501 654.085 213.351 655.038C215.243 655.99 216.885 657.33 218.278 659.058C219.67 660.786 220.386 662.973 220.427 665.618C220.47 668.391 219.826 670.897 218.495 673.136C217.164 675.333 215.206 677.07 212.623 678.348C210.04 679.625 206.957 680.292 203.373 680.347ZM260.515 633.698L260.689 644.961L248.658 645.147L249.185 679.191L234.978 679.41L234.452 645.366L222.549 645.55L222.375 634.288L260.515 633.698Z" fill="white"/>
</g>
<defs>
<clipPath id="clip0">
<rect width="307" height="715" fill="white"/>
</clipPath>
</defs>
</svg>
